<?xml version="1.0" encoding="utf-8"?>
<!-- Generator: Adobe Illustrator 17.0.0, SVG Export Plug-In . SVG Version: 6.00 Build 0)  -->
<!DOCTYPE svg PUBLIC "-//W3C//DTD SVG 1.1//EN" "http://www.w3.org/Graphics/SVG/1.1/DTD/svg11.dtd">
<svg version="1.1" id="Capa_1" xmlns="http://www.w3.org/2000/svg" xmlns:xlink="http://www.w3.org/1999/xlink" x="0px" y="0px"
	 width="36px" height="36px" viewBox="279.64 402.945 36 36" enable-background="new 279.64 402.945 36 36" xml:space="preserve">
<path fill="#010002" d="M315.64,436.945c0,1.1-0.9,2-2,2h-32c-1.1,0-2-0.9-2-2v-32c0-1.1,0.9-2,2-2h32c1.1,0,2,0.9,2,2V436.945z"/>
<path fill="#FFFFFF" d="M297.64,409.192c-4.057,0-7.345,3.289-7.345,7.345c0,7.345,7.345,16.16,7.345,16.16s7.346-8.815,7.346-16.16
	C304.986,412.481,301.697,409.192,297.64,409.192z M297.64,421.037c-2.484,0-4.499-2.014-4.499-4.499
	c0-2.485,2.014-4.499,4.499-4.499c2.485,0,4.499,2.014,4.499,4.499C302.139,419.023,300.125,421.037,297.64,421.037z
	 M294.793,416.538c0,1.572,1.274,2.846,2.846,2.846c1.572,0,2.847-1.275,2.847-2.846c0-1.573-1.275-2.846-2.847-2.846
	C296.068,413.691,294.793,414.965,294.793,416.538z"/>
</svg>
