<?xml version="1.0" encoding="utf-8"?>
<!-- Generator: Adobe Illustrator 17.0.0, SVG Export Plug-In . SVG Version: 6.00 Build 0)  -->
<!DOCTYPE svg PUBLIC "-//W3C//DTD SVG 1.1//EN" "http://www.w3.org/Graphics/SVG/1.1/DTD/svg11.dtd">
<svg version="1.1" id="Capa_1" xmlns="http://www.w3.org/2000/svg" xmlns:xlink="http://www.w3.org/1999/xlink" x="0px" y="0px"
	 width="36px" height="36px" viewBox="0 0 36 36" enable-background="new 0 0 36 36" xml:space="preserve">
<g>
	<path d="M33.587,8.965c-1.61-2.758-3.793-4.941-6.551-6.551C24.278,0.805,21.267,0,18.001,0c-3.266,0-6.278,0.805-9.035,2.414
		C6.207,4.023,4.024,6.207,2.414,8.965C0.805,11.723,0,14.735,0,18c0,3.266,0.805,6.277,2.414,9.035
		c1.61,2.758,3.793,4.941,6.551,6.551C11.723,35.195,14.735,36,18,36s6.278-0.805,9.035-2.414c2.758-1.609,4.941-3.793,6.551-6.551
		C35.195,24.277,36,21.265,36,18C36,14.734,35.195,11.722,33.587,8.965z M29.039,24.398c-1.141,1.953-2.687,3.5-4.64,4.641
		S20.313,30.75,18,30.75c-2.312,0-4.445-0.57-6.399-1.71c-1.953-1.141-3.5-2.688-4.64-4.641C5.821,22.445,5.25,20.312,5.25,18
		c0-2.313,0.57-4.445,1.711-6.399c1.14-1.953,2.688-3.5,4.64-4.641C13.555,5.82,15.688,5.25,18,5.25c2.313,0,4.446,0.57,6.399,1.711
		c1.953,1.141,3.5,2.688,4.64,4.641C30.18,13.555,30.75,15.687,30.75,18C30.75,20.312,30.18,22.445,29.039,24.398z"/>
	<path d="M20.25,9h-1.5c-0.219,0-0.398,0.071-0.539,0.211C18.071,9.351,18,9.531,18,9.75V18h-5.25c-0.219,0-0.398,0.07-0.539,0.21
		C12.071,18.351,12,18.531,12,18.75v1.5c0,0.219,0.07,0.399,0.211,0.539c0.141,0.14,0.321,0.211,0.539,0.211h7.501
		c0.219,0,0.398-0.07,0.539-0.211c0.14-0.14,0.211-0.32,0.211-0.539V9.75c0-0.219-0.071-0.398-0.211-0.539
		C20.649,9.07,20.469,9,20.25,9z"/>
</g>
<g>
</g>
<g>
</g>
<g>
</g>
<g>
</g>
<g>
</g>
<g>
</g>
</svg>
