<?xml version="1.0" encoding="utf-8"?>
<!-- Generator: Adobe Illustrator 17.0.0, SVG Export Plug-In . SVG Version: 6.00 Build 0)  -->
<svg version="1.2" baseProfile="tiny" id="Capa_1" xmlns="http://www.w3.org/2000/svg" xmlns:xlink="http://www.w3.org/1999/xlink"
	 x="0px" y="0px" width="200px" height="20px" viewBox="0 0 200 20" xml:space="preserve">
<g>
	<path fill="#221A17" d="M7.958,6.029l-3.305,8.768H3.327L0.046,6.029H1.64l2.402,6.766L6.42,6.029H7.958z"/>
	<path fill="#221A17" d="M12.754,15.001c-1.397,0-2.482-0.394-3.254-1.181c-0.771-0.788-1.158-1.906-1.158-3.355
		c0-1.429,0.374-2.565,1.123-3.411c0.749-0.845,1.727-1.268,2.936-1.268c0.544,0,1.025,0.079,1.444,0.235
		c0.418,0.157,0.785,0.403,1.099,0.738c0.314,0.335,0.555,0.745,0.722,1.229s0.251,1.077,0.251,1.778v0.801H9.842
		c0,1.02,0.256,1.8,0.769,2.339s1.222,0.809,2.127,0.809c0.325,0,0.643-0.037,0.954-0.11c0.312-0.073,0.593-0.167,0.844-0.283
		c0.267-0.12,0.492-0.237,0.675-0.349c0.183-0.113,0.335-0.219,0.455-0.318h0.086v1.609c-0.173,0.068-0.387,0.153-0.644,0.255
		s-0.487,0.182-0.691,0.24c-0.288,0.078-0.548,0.138-0.781,0.18S13.11,15.001,12.754,15.001z M14.481,9.436
		c-0.011-0.397-0.058-0.74-0.141-1.028c-0.084-0.288-0.204-0.531-0.361-0.73c-0.172-0.22-0.394-0.387-0.663-0.502
		c-0.27-0.115-0.603-0.172-1.001-0.172c-0.392,0-0.726,0.059-1,0.176c-0.275,0.118-0.525,0.29-0.75,0.514
		c-0.22,0.23-0.388,0.485-0.502,0.766c-0.115,0.28-0.188,0.605-0.22,0.977H14.481z"/>
	<path fill="#221A17" d="M24.3,14.797h-1.476V9.805c0-0.403-0.02-0.778-0.059-1.126c-0.039-0.348-0.114-0.627-0.224-0.836
		c-0.12-0.22-0.288-0.383-0.502-0.491c-0.214-0.107-0.507-0.161-0.879-0.161c-0.366,0-0.745,0.098-1.134,0.294
		s-0.771,0.452-1.142,0.766v6.546h-1.476V6.029h1.476v0.974C19.324,6.61,19.758,6.31,20.187,6.1
		c0.429-0.209,0.881-0.314,1.358-0.314c0.863,0,1.538,0.284,2.025,0.852s0.73,1.391,0.73,2.469V14.797z"/>
	<path fill="#221A17" d="M29.026,14.97c-0.806,0-1.434-0.229-1.884-0.687c-0.45-0.458-0.675-1.181-0.675-2.17V7.254H25.47V6.029
		h0.997V3.51h1.476v2.52h2.716v1.225h-2.716v4.168c0,0.445,0.008,0.788,0.023,1.028c0.016,0.241,0.076,0.466,0.181,0.675
		c0.089,0.183,0.233,0.321,0.432,0.412c0.199,0.092,0.468,0.137,0.809,0.137c0.241,0,0.474-0.035,0.699-0.106
		c0.225-0.07,0.387-0.129,0.486-0.176h0.086v1.326c-0.277,0.079-0.559,0.14-0.844,0.185S29.266,14.97,29.026,14.97z"/>
	<path fill="#221A17" d="M36.647,13.863c-0.121,0.089-0.281,0.213-0.483,0.373c-0.201,0.16-0.396,0.286-0.584,0.38
		c-0.262,0.136-0.514,0.241-0.757,0.314c-0.244,0.073-0.585,0.11-1.024,0.11c-0.361,0-0.704-0.068-1.028-0.204
		c-0.325-0.136-0.61-0.327-0.855-0.573c-0.235-0.241-0.424-0.538-0.565-0.891c-0.141-0.353-0.212-0.726-0.212-1.118
		c0-0.607,0.128-1.124,0.385-1.55s0.662-0.765,1.217-1.017c0.492-0.225,1.072-0.38,1.742-0.467s1.392-0.15,2.167-0.192V8.745
		c0-0.345-0.052-0.624-0.157-0.836c-0.104-0.212-0.251-0.375-0.439-0.49c-0.188-0.121-0.418-0.2-0.69-0.24
		c-0.272-0.039-0.552-0.059-0.84-0.059c-0.34,0-0.741,0.051-1.201,0.153s-0.921,0.25-1.381,0.443h-0.086V6.218
		c0.272-0.079,0.662-0.165,1.169-0.259c0.508-0.094,1.01-0.142,1.507-0.142c0.602,0,1.109,0.047,1.522,0.142
		c0.414,0.094,0.785,0.264,1.115,0.51c0.319,0.241,0.557,0.552,0.714,0.934c0.157,0.382,0.235,0.848,0.235,1.397v5.997h-1.468
		V13.863z M36.647,12.638v-2.433c-0.351,0.031-0.794,0.075-1.331,0.129c-0.536,0.055-0.969,0.132-1.299,0.232
		c-0.393,0.12-0.717,0.305-0.973,0.553c-0.257,0.249-0.385,0.595-0.385,1.04c0,0.502,0.141,0.882,0.424,1.138
		s0.696,0.384,1.24,0.384c0.465,0,0.887-0.101,1.264-0.302C35.964,13.179,36.317,12.932,36.647,12.638z"/>
	<path fill="#221A17" d="M42.557,15.009c-0.586,0-1.134-0.079-1.645-0.235c-0.51-0.157-0.933-0.325-1.268-0.502v-1.656h0.079
		c0.125,0.1,0.273,0.209,0.443,0.33c0.17,0.121,0.396,0.246,0.679,0.377c0.251,0.115,0.527,0.217,0.828,0.306
		c0.301,0.089,0.614,0.133,0.938,0.133c0.236,0,0.487-0.027,0.754-0.083c0.267-0.055,0.465-0.124,0.596-0.208
		c0.183-0.12,0.315-0.249,0.396-0.384c0.081-0.136,0.122-0.34,0.122-0.612c0-0.351-0.095-0.615-0.287-0.793
		c-0.191-0.178-0.53-0.327-1.016-0.447c-0.188-0.047-0.435-0.102-0.738-0.165c-0.304-0.063-0.583-0.13-0.84-0.204
		c-0.67-0.193-1.157-0.493-1.46-0.898c-0.304-0.405-0.456-0.896-0.456-1.472c0-0.79,0.298-1.434,0.895-1.931
		c0.597-0.497,1.389-0.746,2.378-0.746c0.486,0,0.976,0.061,1.468,0.181c0.492,0.121,0.905,0.272,1.24,0.455v1.578h-0.078
		c-0.377-0.298-0.797-0.534-1.26-0.706c-0.463-0.173-0.93-0.259-1.401-0.259c-0.486,0-0.897,0.102-1.232,0.306
		c-0.335,0.204-0.502,0.513-0.502,0.926c0,0.366,0.099,0.64,0.298,0.82c0.199,0.181,0.518,0.328,0.958,0.443
		c0.22,0.058,0.464,0.114,0.734,0.169c0.27,0.055,0.553,0.119,0.852,0.192c0.649,0.163,1.137,0.432,1.464,0.809
		c0.327,0.377,0.491,0.89,0.491,1.539c0,0.376-0.075,0.734-0.224,1.071c-0.149,0.337-0.368,0.627-0.655,0.867
		c-0.314,0.262-0.668,0.461-1.063,0.597C43.649,14.941,43.154,15.009,42.557,15.009z"/>
	<path fill="#221A17" d="M59.943,9.593c0,0.728-0.099,1.43-0.298,2.107c-0.199,0.678-0.484,1.299-0.855,1.864h-3.304l-0.196-0.91
		c-0.351,0.298-0.674,0.535-0.969,0.71c-0.296,0.176-0.698,0.263-1.205,0.263c-0.806,0-1.465-0.323-1.978-0.969
		c-0.513-0.646-0.769-1.584-0.769-2.814c0-1.23,0.315-2.188,0.946-2.873c0.63-0.685,1.351-1.028,2.163-1.028
		c0.376,0,0.701,0.047,0.973,0.142c0.272,0.094,0.547,0.22,0.824,0.376V6.084h1.248v6.609h1.782
		c0.199-0.372,0.341-0.853,0.428-1.444s0.129-1.127,0.129-1.609c0-1.711-0.436-3.089-1.307-4.133
		c-0.871-1.044-2.123-1.566-3.755-1.566c-1.549,0-2.827,0.564-3.834,1.692c-1.007,1.127-1.511,2.495-1.511,4.101
		c0,1.727,0.489,3.125,1.468,4.195c0.978,1.07,2.258,1.605,3.838,1.605c0.424,0,0.87-0.029,1.338-0.086s0.912-0.149,1.331-0.274
		v1.114c-0.439,0.104-0.886,0.178-1.338,0.22s-0.899,0.063-1.338,0.063c-1.853,0-3.386-0.636-4.6-1.907s-1.821-2.92-1.821-4.945
		c0-1.92,0.626-3.54,1.88-4.859c1.253-1.318,2.78-1.978,4.58-1.978c1.925,0,3.433,0.622,4.521,1.864S59.943,7.604,59.943,9.593z
		 M55.257,11.594V7.529c-0.293-0.152-0.563-0.26-0.809-0.326c-0.246-0.065-0.502-0.098-0.769-0.098
		c-0.592,0-1.068,0.221-1.429,0.663c-0.361,0.442-0.542,1.126-0.542,2.052c0,0.837,0.136,1.479,0.408,1.923
		c0.272,0.445,0.706,0.667,1.303,0.667c0.319,0,0.634-0.076,0.946-0.228S54.974,11.835,55.257,11.594z"/>
	<path fill="#221A17" d="M66.622,7.615h-0.079c-0.11-0.031-0.227-0.051-0.35-0.059c-0.123-0.008-0.271-0.012-0.443-0.012
		c-0.397,0-0.792,0.086-1.185,0.259c-0.393,0.173-0.764,0.429-1.115,0.77v6.224h-1.476V6.029h1.476v1.303
		C63.99,6.856,64.46,6.52,64.86,6.324s0.789-0.294,1.166-0.294c0.152,0,0.266,0.004,0.341,0.012s0.161,0.02,0.255,0.036V7.615z"/>
	<path fill="#221A17" d="M71.497,15.001c-1.397,0-2.482-0.394-3.254-1.181c-0.771-0.788-1.158-1.906-1.158-3.355
		c0-1.429,0.374-2.565,1.123-3.411c0.749-0.845,1.727-1.268,2.936-1.268c0.544,0,1.025,0.079,1.444,0.235
		c0.418,0.157,0.785,0.403,1.099,0.738C74,7.094,74.241,7.504,74.409,7.988s0.251,1.077,0.251,1.778v0.801h-6.075
		c0,1.02,0.256,1.8,0.769,2.339s1.222,0.809,2.127,0.809c0.325,0,0.643-0.037,0.954-0.11c0.312-0.073,0.593-0.167,0.844-0.283
		c0.267-0.12,0.492-0.237,0.675-0.349c0.183-0.113,0.335-0.219,0.455-0.318h0.086v1.609c-0.173,0.068-0.387,0.153-0.644,0.255
		s-0.487,0.182-0.691,0.24c-0.288,0.078-0.548,0.138-0.781,0.18S71.852,15.001,71.497,15.001z M73.223,9.436
		c-0.011-0.397-0.058-0.74-0.141-1.028c-0.084-0.288-0.204-0.531-0.361-0.73c-0.172-0.22-0.394-0.387-0.663-0.502
		c-0.27-0.115-0.603-0.172-1.001-0.172c-0.392,0-0.726,0.059-1,0.176c-0.275,0.118-0.525,0.29-0.75,0.514
		c-0.22,0.23-0.388,0.485-0.502,0.766c-0.115,0.28-0.188,0.605-0.22,0.977H73.223z"/>
	<path fill="#221A17" d="M86.104,14.797v-5.07c0-0.403-0.016-0.776-0.047-1.119c-0.032-0.343-0.097-0.611-0.196-0.805
		c-0.105-0.209-0.254-0.363-0.447-0.463c-0.194-0.1-0.456-0.149-0.785-0.149c-0.304,0-0.629,0.093-0.977,0.279
		c-0.348,0.186-0.708,0.454-1.08,0.805c0.005,0.089,0.012,0.195,0.02,0.318s0.012,0.268,0.012,0.436v5.769h-1.476v-5.07
		c0-0.403-0.016-0.776-0.047-1.119c-0.031-0.343-0.097-0.611-0.196-0.805C80.78,7.594,80.63,7.44,80.437,7.34
		c-0.194-0.1-0.455-0.149-0.785-0.149c-0.319,0-0.654,0.1-1.005,0.298c-0.351,0.199-0.691,0.453-1.021,0.762v6.546h-1.476V6.029
		h1.476v0.974c0.387-0.387,0.771-0.687,1.15-0.899s0.797-0.318,1.252-0.318c0.518,0,0.978,0.118,1.377,0.353
		c0.4,0.236,0.705,0.623,0.915,1.162c0.445-0.497,0.879-0.874,1.303-1.13c0.424-0.256,0.884-0.385,1.381-0.385
		c0.376,0,0.719,0.059,1.028,0.177c0.309,0.118,0.578,0.307,0.808,0.569c0.235,0.267,0.417,0.599,0.545,0.997
		c0.128,0.397,0.192,0.897,0.192,1.499v5.769H86.104z"/>
	<path fill="#221A17" d="M91.261,4.562h-1.68v-1.53h1.68V4.562z M91.159,14.797h-1.476V6.029h1.476V14.797z"/>
	<path fill="#221A17" d="M95.696,15.009c-0.586,0-1.134-0.079-1.645-0.235c-0.51-0.157-0.933-0.325-1.268-0.502v-1.656h0.079
		c0.125,0.1,0.273,0.209,0.443,0.33c0.17,0.121,0.396,0.246,0.679,0.377c0.251,0.115,0.527,0.217,0.828,0.306
		c0.301,0.089,0.614,0.133,0.938,0.133c0.236,0,0.487-0.027,0.754-0.083c0.267-0.055,0.465-0.124,0.596-0.208
		c0.183-0.12,0.315-0.249,0.396-0.384c0.081-0.136,0.122-0.34,0.122-0.612c0-0.351-0.095-0.615-0.287-0.793
		c-0.191-0.178-0.53-0.327-1.016-0.447c-0.188-0.047-0.435-0.102-0.738-0.165c-0.304-0.063-0.583-0.13-0.84-0.204
		c-0.67-0.193-1.157-0.493-1.46-0.898c-0.304-0.405-0.456-0.896-0.456-1.472c0-0.79,0.298-1.434,0.895-1.931
		c0.597-0.497,1.389-0.746,2.378-0.746c0.486,0,0.976,0.061,1.468,0.181c0.492,0.121,0.905,0.272,1.24,0.455v1.578h-0.078
		c-0.377-0.298-0.797-0.534-1.26-0.706c-0.463-0.173-0.93-0.259-1.401-0.259c-0.486,0-0.897,0.102-1.232,0.306
		c-0.335,0.204-0.502,0.513-0.502,0.926c0,0.366,0.099,0.64,0.298,0.82c0.199,0.181,0.518,0.328,0.958,0.443
		c0.22,0.058,0.464,0.114,0.734,0.169c0.27,0.055,0.553,0.119,0.852,0.192c0.649,0.163,1.137,0.432,1.464,0.809
		c0.327,0.377,0.491,0.89,0.491,1.539c0,0.376-0.075,0.734-0.224,1.071c-0.149,0.337-0.368,0.627-0.655,0.867
		c-0.314,0.262-0.668,0.461-1.063,0.597C96.788,14.941,96.292,15.009,95.696,15.009z"/>
	<path fill="#221A17" d="M104.306,15.001c-1.397,0-2.482-0.394-3.254-1.181c-0.771-0.788-1.158-1.906-1.158-3.355
		c0-1.429,0.374-2.565,1.123-3.411c0.749-0.845,1.727-1.268,2.936-1.268c0.544,0,1.025,0.079,1.444,0.235
		c0.418,0.157,0.785,0.403,1.099,0.738c0.314,0.335,0.555,0.745,0.722,1.229s0.251,1.077,0.251,1.778v0.801h-6.075
		c0,1.02,0.256,1.8,0.769,2.339s1.222,0.809,2.127,0.809c0.325,0,0.643-0.037,0.954-0.11c0.312-0.073,0.593-0.167,0.844-0.283
		c0.267-0.12,0.492-0.237,0.675-0.349c0.183-0.113,0.335-0.219,0.455-0.318h0.086v1.609c-0.173,0.068-0.387,0.153-0.644,0.255
		s-0.487,0.182-0.691,0.24c-0.288,0.078-0.548,0.138-0.781,0.18S104.661,15.001,104.306,15.001z M106.033,9.436
		c-0.011-0.397-0.058-0.74-0.141-1.028c-0.084-0.288-0.204-0.531-0.361-0.73c-0.172-0.22-0.394-0.387-0.663-0.502
		c-0.27-0.115-0.603-0.172-1.001-0.172c-0.392,0-0.726,0.059-1,0.176c-0.275,0.118-0.525,0.29-0.75,0.514
		c-0.22,0.23-0.388,0.485-0.502,0.766c-0.115,0.28-0.188,0.605-0.22,0.977H106.033z"/>
	<path fill="#221A17" d="M113.607,7.615h-0.079c-0.11-0.031-0.227-0.051-0.35-0.059c-0.123-0.008-0.271-0.012-0.443-0.012
		c-0.397,0-0.792,0.086-1.185,0.259c-0.393,0.173-0.764,0.429-1.115,0.77v6.224h-1.476V6.029h1.476v1.303
		c0.539-0.476,1.009-0.813,1.409-1.009s0.789-0.294,1.166-0.294c0.152,0,0.266,0.004,0.341,0.012s0.161,0.02,0.255,0.036V7.615z"/>
	<path fill="#221A17" d="M121.888,10.417c0,1.476-0.356,2.615-1.067,3.418c-0.712,0.803-1.659,1.205-2.841,1.205
		c-1.219,0-2.178-0.415-2.877-1.244c-0.698-0.829-1.048-1.956-1.048-3.379c0-1.465,0.36-2.603,1.08-3.414
		c0.719-0.811,1.667-1.217,2.845-1.217c1.183,0,2.129,0.404,2.841,1.213C121.532,7.807,121.888,8.947,121.888,10.417z
		 M120.365,10.417c0-1.135-0.207-1.979-0.62-2.531c-0.414-0.552-1.002-0.828-1.766-0.828c-0.77,0-1.362,0.276-1.778,0.828
		c-0.416,0.552-0.624,1.396-0.624,2.531c0,1.099,0.208,1.932,0.624,2.5s1.008,0.852,1.778,0.852c0.758,0,1.346-0.278,1.762-0.836
		C120.157,12.375,120.365,11.537,120.365,10.417z"/>
	<path fill="#221A17" d="M125.773,15.009c-0.586,0-1.134-0.079-1.645-0.235c-0.51-0.157-0.933-0.325-1.268-0.502v-1.656h0.079
		c0.125,0.1,0.273,0.209,0.443,0.33c0.17,0.121,0.396,0.246,0.679,0.377c0.251,0.115,0.527,0.217,0.828,0.306
		c0.301,0.089,0.614,0.133,0.938,0.133c0.236,0,0.487-0.027,0.754-0.083c0.267-0.055,0.465-0.124,0.596-0.208
		c0.183-0.12,0.315-0.249,0.396-0.384c0.081-0.136,0.122-0.34,0.122-0.612c0-0.351-0.095-0.615-0.287-0.793
		c-0.191-0.178-0.53-0.327-1.016-0.447c-0.188-0.047-0.435-0.102-0.738-0.165c-0.304-0.063-0.583-0.13-0.84-0.204
		c-0.67-0.193-1.157-0.493-1.46-0.898c-0.304-0.405-0.456-0.896-0.456-1.472c0-0.79,0.298-1.434,0.895-1.931
		c0.597-0.497,1.389-0.746,2.378-0.746c0.486,0,0.976,0.061,1.468,0.181c0.492,0.121,0.905,0.272,1.24,0.455v1.578h-0.078
		c-0.377-0.298-0.797-0.534-1.26-0.706c-0.463-0.173-0.93-0.259-1.401-0.259c-0.486,0-0.897,0.102-1.232,0.306
		c-0.335,0.204-0.502,0.513-0.502,0.926c0,0.366,0.099,0.64,0.298,0.82c0.199,0.181,0.518,0.328,0.958,0.443
		c0.22,0.058,0.464,0.114,0.734,0.169c0.27,0.055,0.553,0.119,0.852,0.192c0.649,0.163,1.137,0.432,1.464,0.809
		c0.327,0.377,0.491,0.89,0.491,1.539c0,0.376-0.075,0.734-0.224,1.071c-0.149,0.337-0.368,0.627-0.655,0.867
		c-0.314,0.262-0.668,0.461-1.063,0.597C126.866,14.941,126.37,15.009,125.773,15.009z"/>
	<path fill="#221A17" d="M133.23,14.97c-0.806,0-1.434-0.229-1.884-0.687c-0.45-0.458-0.675-1.181-0.675-2.17V7.254h-0.997V6.029
		h0.997V3.51h1.476v2.52h2.716v1.225h-2.716v4.168c0,0.445,0.008,0.788,0.023,1.028c0.016,0.241,0.076,0.466,0.181,0.675
		c0.089,0.183,0.233,0.321,0.432,0.412c0.199,0.092,0.468,0.137,0.809,0.137c0.241,0,0.474-0.035,0.699-0.106
		c0.225-0.07,0.387-0.129,0.486-0.176h0.087v1.326c-0.278,0.079-0.559,0.14-0.844,0.185S133.47,14.97,133.23,14.97z"/>
	<path fill="#221A17" d="M142.783,14.797h-1.476v-0.973c-0.456,0.397-0.888,0.7-1.296,0.906c-0.407,0.207-0.863,0.31-1.365,0.31
		c-0.382,0-0.742-0.063-1.079-0.188c-0.338-0.126-0.632-0.325-0.883-0.597c-0.252-0.272-0.446-0.615-0.585-1.028
		c-0.139-0.413-0.208-0.916-0.208-1.507V6.029h1.476v4.992c0,0.466,0.017,0.852,0.051,1.158s0.111,0.574,0.231,0.805
		c0.12,0.225,0.284,0.39,0.491,0.494c0.206,0.105,0.503,0.157,0.891,0.157c0.361,0,0.745-0.102,1.153-0.306s0.782-0.455,1.123-0.753
		V6.029h1.476V14.797z"/>
	<path fill="#221A17" d="M151.666,14.797h-1.476v-0.895c-0.23,0.194-0.429,0.354-0.597,0.479c-0.167,0.125-0.363,0.241-0.588,0.345
		c-0.21,0.1-0.427,0.177-0.651,0.232c-0.226,0.055-0.487,0.082-0.785,0.082c-0.477,0-0.917-0.099-1.323-0.298
		c-0.405-0.199-0.749-0.489-1.031-0.871c-0.288-0.387-0.511-0.865-0.668-1.433c-0.156-0.567-0.235-1.22-0.235-1.958
		c0-0.77,0.1-1.435,0.299-1.998c0.198-0.563,0.474-1.053,0.824-1.472c0.318-0.382,0.705-0.682,1.157-0.899
		c0.453-0.217,0.928-0.326,1.425-0.326c0.439,0,0.821,0.048,1.146,0.145c0.325,0.097,0.668,0.248,1.028,0.452V2.583h1.476V14.797z
		 M150.191,12.662V7.607c-0.366-0.178-0.694-0.301-0.984-0.369c-0.291-0.068-0.606-0.102-0.946-0.102
		c-0.759,0-1.353,0.284-1.781,0.852c-0.43,0.568-0.645,1.388-0.645,2.46c0,1.031,0.165,1.82,0.495,2.367
		c0.329,0.547,0.858,0.82,1.585,0.82c0.388,0,0.777-0.087,1.17-0.263C149.477,13.197,149.846,12.96,150.191,12.662z"/>
	<path fill="#221A17" d="M155.411,4.562h-1.68v-1.53h1.68V4.562z M155.309,14.797h-1.476V6.029h1.476V14.797z"/>
	<path fill="#221A17" d="M164.689,10.417c0,1.476-0.356,2.615-1.068,3.418c-0.711,0.803-1.658,1.205-2.841,1.205
		c-1.22,0-2.179-0.415-2.877-1.244c-0.698-0.829-1.048-1.956-1.048-3.379c0-1.465,0.359-2.603,1.079-3.414s1.668-1.217,2.846-1.217
		c1.183,0,2.13,0.404,2.841,1.213C164.332,7.807,164.689,8.947,164.689,10.417z M163.165,10.417c0-1.135-0.206-1.979-0.62-2.531
		c-0.413-0.552-1.002-0.828-1.766-0.828c-0.77,0-1.362,0.276-1.778,0.828c-0.416,0.552-0.624,1.396-0.624,2.531
		c0,1.099,0.208,1.932,0.624,2.5s1.009,0.852,1.778,0.852c0.759,0,1.346-0.278,1.762-0.836
		C162.957,12.375,163.165,11.537,163.165,10.417z"/>
	<path fill="#221A17" d="M168.362,14.797h-1.876V12.56h1.876V14.797z"/>
	<path fill="#221A17" d="M174.414,14.993c-0.603,0-1.154-0.093-1.656-0.279c-0.503-0.186-0.935-0.467-1.295-0.844
		c-0.361-0.376-0.642-0.852-0.84-1.424c-0.199-0.573-0.299-1.247-0.299-2.021c0-0.769,0.104-1.434,0.311-1.994
		c0.206-0.56,0.482-1.031,0.828-1.413c0.345-0.382,0.775-0.676,1.291-0.883c0.516-0.207,1.068-0.31,1.66-0.31
		c0.481,0,0.945,0.068,1.393,0.204c0.448,0.136,0.847,0.293,1.197,0.471v1.656h-0.086c-0.105-0.089-0.239-0.191-0.404-0.306
		s-0.365-0.233-0.601-0.354c-0.204-0.104-0.445-0.196-0.723-0.274c-0.277-0.079-0.544-0.118-0.8-0.118
		c-0.765,0-1.378,0.289-1.841,0.867s-0.694,1.396-0.694,2.453c0,1.036,0.224,1.843,0.671,2.421c0.447,0.579,1.068,0.868,1.864,0.868
		c0.481,0,0.938-0.1,1.373-0.298s0.819-0.456,1.154-0.77h0.086v1.656c-0.146,0.068-0.329,0.15-0.55,0.248
		c-0.22,0.097-0.418,0.168-0.596,0.216c-0.252,0.073-0.477,0.129-0.676,0.168C174.985,14.974,174.728,14.993,174.414,14.993z"/>
	<path fill="#221A17" d="M185.56,10.417c0,1.476-0.356,2.615-1.068,3.418c-0.711,0.803-1.658,1.205-2.841,1.205
		c-1.22,0-2.179-0.415-2.877-1.244c-0.698-0.829-1.048-1.956-1.048-3.379c0-1.465,0.359-2.603,1.079-3.414s1.668-1.217,2.846-1.217
		c1.183,0,2.13,0.404,2.841,1.213C185.203,7.807,185.56,8.947,185.56,10.417z M184.036,10.417c0-1.135-0.206-1.979-0.62-2.531
		c-0.413-0.552-1.002-0.828-1.766-0.828c-0.77,0-1.362,0.276-1.778,0.828c-0.416,0.552-0.624,1.396-0.624,2.531
		c0,1.099,0.208,1.932,0.624,2.5s1.009,0.852,1.778,0.852c0.759,0,1.346-0.278,1.762-0.836
		C183.828,12.375,184.036,11.537,184.036,10.417z"/>
	<path fill="#221A17" d="M197.028,14.797v-5.07c0-0.403-0.016-0.776-0.048-1.119c-0.031-0.343-0.097-0.611-0.196-0.805
		c-0.104-0.209-0.254-0.363-0.447-0.463s-0.455-0.149-0.784-0.149c-0.304,0-0.63,0.093-0.978,0.279
		c-0.349,0.186-0.708,0.454-1.079,0.805c0.005,0.089,0.012,0.195,0.02,0.318s0.012,0.268,0.012,0.436v5.769h-1.476v-5.07
		c0-0.403-0.016-0.776-0.047-1.119c-0.032-0.343-0.098-0.611-0.196-0.805c-0.105-0.209-0.254-0.363-0.447-0.463
		c-0.194-0.1-0.456-0.149-0.785-0.149c-0.319,0-0.654,0.1-1.005,0.298c-0.351,0.199-0.69,0.453-1.021,0.762v6.546h-1.476V6.029
		h1.476v0.974c0.388-0.387,0.771-0.687,1.15-0.899c0.379-0.212,0.796-0.318,1.252-0.318c0.518,0,0.977,0.118,1.377,0.353
		c0.4,0.236,0.705,0.623,0.915,1.162c0.444-0.497,0.879-0.874,1.303-1.13s0.884-0.385,1.381-0.385c0.377,0,0.72,0.059,1.028,0.177
		s0.578,0.307,0.809,0.569c0.235,0.267,0.417,0.599,0.546,0.997c0.128,0.397,0.192,0.897,0.192,1.499v5.769H197.028z"/>
</g>
<g>
</g>
<g>
</g>
<g>
</g>
<g>
</g>
<g>
</g>
<g>
</g>
</svg>
