<?xml version="1.0" encoding="utf-8"?>
<!-- Generator: Adobe Illustrator 17.0.0, SVG Export Plug-In . SVG Version: 6.00 Build 0)  -->
<!DOCTYPE svg PUBLIC "-//W3C//DTD SVG 1.1//EN" "http://www.w3.org/Graphics/SVG/1.1/DTD/svg11.dtd">
<svg version="1.1" id="Capa_1" xmlns="http://www.w3.org/2000/svg" xmlns:xlink="http://www.w3.org/1999/xlink" x="0px" y="0px"
	 width="36px" height="36px" viewBox="279.64 402.945 36 36" enable-background="new 279.64 402.945 36 36" xml:space="preserve">
<path fill="#010002" d="M315.64,436.945c0,1.1-0.9,2-2,2h-32c-1.1,0-2-0.9-2-2v-32c0-1.1,0.9-2,2-2h32c1.1,0,2,0.9,2,2V436.945z"/>
<g>
	<path fill="#FFFFFF" d="M307.342,427.808c0.114,0.132,0.196,0.276,0.247,0.434c0.07,0.218,0.078,0.439,0.022,0.665
		c-0.055,0.225-0.171,0.422-0.347,0.589l-0.831,0.773c-0.326,0.297-0.668,0.546-1.025,0.748s-0.732,0.366-1.123,0.492
		c-0.63,0.203-1.285,0.298-1.967,0.286s-1.366-0.122-2.053-0.331c-0.687-0.209-1.365-0.511-2.034-0.906
		c-0.67-0.395-1.309-0.87-1.916-1.425c-0.369-0.298-0.768-0.644-1.197-1.04c-0.364-0.337-0.787-0.746-1.27-1.225
		c-0.483-0.479-0.988-1.021-1.517-1.624c-0.536-0.602-0.979-1.135-1.329-1.601c-0.35-0.466-0.631-0.856-0.842-1.171
		c-0.246-0.368-0.438-0.689-0.574-0.964c-0.332-0.486-0.622-0.982-0.868-1.489c-0.246-0.507-0.453-1.021-0.62-1.541
		c-0.219-0.681-0.361-1.357-0.427-2.031c-0.066-0.673-0.045-1.326,0.063-1.959c0.108-0.632,0.31-1.232,0.607-1.798
		c0.296-0.567,0.698-1.079,1.204-1.538l0.822-0.755c0.131-0.114,0.274-0.195,0.426-0.245c0.215-0.069,0.434-0.074,0.658-0.015
		c0.223,0.06,0.416,0.18,0.575,0.36l3.214,3.62c0.114,0.132,0.196,0.274,0.245,0.427c0.072,0.225,0.081,0.451,0.027,0.679
		c-0.055,0.228-0.171,0.423-0.351,0.586l-1.627,1.492c-0.215,0.197-0.353,0.429-0.416,0.697c-0.062,0.268-0.051,0.531,0.032,0.79
		c0.063,0.197,0.16,0.37,0.29,0.52l5.438,6.149c0.211,0.236,0.446,0.384,0.704,0.444c0.258,0.06,0.515,0.049,0.769-0.033
		c0.174-0.056,0.338-0.152,0.493-0.289l1.627-1.492c0.13-0.113,0.271-0.195,0.424-0.244c0.21-0.068,0.429-0.072,0.654-0.013
		c0.226,0.059,0.42,0.177,0.582,0.355L307.342,427.808z"/>
</g>
</svg>
