<?xml version="1.0" encoding="utf-8"?>
<!-- Generator: Adobe Illustrator 17.0.0, SVG Export Plug-In . SVG Version: 6.00 Build 0)  -->
<!DOCTYPE svg PUBLIC "-//W3C//DTD SVG 1.1//EN" "http://www.w3.org/Graphics/SVG/1.1/DTD/svg11.dtd">
<svg version="1.1" id="Capa_1" xmlns="http://www.w3.org/2000/svg" xmlns:xlink="http://www.w3.org/1999/xlink" x="0px" y="0px"
	 width="36px" height="36px" viewBox="279.64 402.945 36 36" enable-background="new 279.64 402.945 36 36" xml:space="preserve">
<rect x="279.64" y="402.945" width="36" height="36"/>
<g>
	<g>
		<path fill="#FFFFFF" d="M283.954,419.526h11.228c0.583,0,1.039-0.456,1.039-1.039v-11.228c0-0.583-0.456-1.039-1.039-1.039
			h-11.228c-0.583,0-1.039,0.456-1.039,1.039v11.228C282.915,419.044,283.397,419.526,283.954,419.526z M284.993,408.298h9.149
			v9.149h-9.149C284.993,417.448,284.993,408.298,284.993,408.298z"/>
		<path fill="#FFFFFF" d="M312.365,407.259c0-0.583-0.456-1.039-1.039-1.039h-11.228c-0.583,0-1.039,0.456-1.039,1.039v11.228
			c0,0.583,0.456,1.039,1.039,1.039h11.228c0.583,0,1.039-0.456,1.039-1.039V407.259z M310.287,417.448h-9.149v-9.149h9.149V417.448
			z"/>
		<path fill="#FFFFFF" d="M283.954,435.67h11.228c0.583,0,1.039-0.456,1.039-1.039v-11.228c0-0.583-0.456-1.039-1.039-1.039h-11.228
			c-0.583,0-1.039,0.456-1.039,1.039v11.228C282.915,435.188,283.397,435.67,283.954,435.67z M284.993,424.443h9.149v9.149h-9.149
			C284.993,433.592,284.993,424.443,284.993,424.443z"/>
		<path fill="#FFFFFF" d="M311.326,422.364h-11.228c-0.583,0-1.039,0.456-1.039,1.039v11.228c0,0.583,0.456,1.039,1.039,1.039
			h11.228c0.583,0,1.039-0.456,1.039-1.039v-11.228C312.365,422.846,311.883,422.364,311.326,422.364z M310.287,433.592h-9.149
			v-9.149h9.149V433.592z"/>
	</g>
</g>
</svg>
