<?xml version="1.0" encoding="utf-8"?>
<!-- Generator: Adobe Illustrator 17.0.0, SVG Export Plug-In . SVG Version: 6.00 Build 0)  -->
<!DOCTYPE svg PUBLIC "-//W3C//DTD SVG 1.1//EN" "http://www.w3.org/Graphics/SVG/1.1/DTD/svg11.dtd">
<svg version="1.1" id="Capa_1" xmlns="http://www.w3.org/2000/svg" xmlns:xlink="http://www.w3.org/1999/xlink" x="0px" y="0px"
	 width="36px" height="36px" viewBox="279.64 402.945 36 36" enable-background="new 279.64 402.945 36 36" xml:space="preserve">
<path fill="#010002" d="M315.64,436.945c0,1.1-0.9,2-2,2h-32c-1.1,0-2-0.9-2-2v-32c0-1.1,0.9-2,2-2h32c1.1,0,2,0.9,2,2V436.945z"/>
<g>
	<g>
		<path fill="#FFFFFF" d="M288.24,412.727l8.044,7.597c0.365,0.344,0.867,0.497,1.356,0.468c0.487,0.029,0.99-0.123,1.355-0.468
			l8.044-7.597c0.645-0.605,0.499-1.101-0.319-1.101h-9.079h-9.079C287.743,411.625,287.597,412.122,288.24,412.727z"/>
		<path fill="#FFFFFF" d="M307.62,414.731l-8.791,7.957c-0.329,0.294-0.759,0.438-1.188,0.431c-0.43,0.007-0.86-0.138-1.189-0.431
			l-8.792-7.957c-0.653-0.59-1.186-0.273-1.186,0.703v13.056c0,0.976,0.67,1.775,1.489,1.775h9.677h9.678
			c0.819,0,1.489-0.799,1.489-1.775v-13.056C308.806,414.458,308.272,414.141,307.62,414.731z"/>
	</g>
</g>
</svg>
