<?xml version="1.0" encoding="utf-8"?>
<!-- Generator: Adobe Illustrator 17.0.0, SVG Export Plug-In . SVG Version: 6.00 Build 0)  -->
<!DOCTYPE svg PUBLIC "-//W3C//DTD SVG 1.1//EN" "http://www.w3.org/Graphics/SVG/1.1/DTD/svg11.dtd">
<svg version="1.1" id="Capa_1" xmlns="http://www.w3.org/2000/svg" xmlns:xlink="http://www.w3.org/1999/xlink" x="0px" y="0px"
	 width="100.844px" height="44.548px" viewBox="0 0 100.844 44.548" enable-background="new 0 0 100.844 44.548"
	 xml:space="preserve">
<g>
	<path fill="#FFFFFF" d="M21.052,9.298c0.323,0.533,0.641,0.904,0.953,1.114s0.681,0.314,1.105,0.314
		c0.51,0,0.907-0.136,1.191-0.407s0.427-0.591,0.427-0.96c0-0.323-0.112-0.608-0.338-0.854c-0.229-0.246-0.741-0.483-1.535-0.71
		c-1.083-0.305-1.858-0.679-2.326-1.121c-0.581-0.556-0.872-1.244-0.872-2.063c0-0.879,0.291-1.607,0.872-2.183
		c0.582-0.576,1.381-0.864,2.396-0.864c0.577,0,1.093,0.104,1.545,0.311c0.452,0.207,0.836,0.473,1.15,0.796
		c0.203,0.214,0.407,0.508,0.611,0.881l-1.605,0.704c-0.272-0.414-0.551-0.717-0.835-0.909s-0.602-0.287-0.949-0.287
		c-0.429,0-0.772,0.128-1.029,0.386s-0.386,0.568-0.386,0.933c0,0.292,0.106,0.542,0.319,0.751c0.208,0.21,0.73,0.426,1.567,0.649
		s1.471,0.483,1.901,0.779c0.432,0.296,0.754,0.681,0.969,1.155s0.321,0.961,0.321,1.462c0,0.528-0.138,1.059-0.414,1.592
		c-0.275,0.533-0.686,0.943-1.229,1.229c-0.544,0.287-1.168,0.431-1.873,0.431c-0.667,0-1.246-0.12-1.736-0.359
		s-0.906-0.561-1.246-0.967c-0.221-0.26-0.443-0.622-0.669-1.086L21.052,9.298z"/>
	<path fill="#FFFFFF" d="M31.973,1.564c0.918,0,1.656,0.164,2.218,0.492c0.734,0.428,1.295,1.043,1.682,1.845s0.58,1.854,0.58,3.156
		c0,1.768-0.389,3.104-1.166,4.011c-0.777,0.907-1.806,1.36-3.084,1.36c-1.291,0-2.335-0.461-3.132-1.384
		c-0.796-0.922-1.194-2.27-1.194-4.042c0-1.065,0.161-2.022,0.484-2.87c0.174-0.469,0.44-0.906,0.8-1.312
		c0.358-0.405,0.777-0.716,1.255-0.933S31.412,1.564,31.973,1.564z M32.164,3.354c-0.658,0-1.202,0.283-1.631,0.847
		C30.104,4.766,29.89,5.7,29.89,7.002c0,1.28,0.217,2.2,0.652,2.761c0.436,0.56,0.993,0.84,1.673,0.84
		c0.646,0,1.183-0.279,1.612-0.837c0.429-0.558,0.644-1.473,0.644-2.744c0-1.421-0.262-2.421-0.784-2.999
		C33.283,3.577,32.775,3.354,32.164,3.354z"/>
	<path fill="#FFFFFF" d="M38.173,1.769h1.905v8.65h4.026v1.804h-5.932V1.769z"/>
	<path fill="#FFFFFF" d="M45.825,1.769h1.911v10.454h-1.911V1.769z"/>
	<path fill="#FFFFFF" d="M57.536,9.23c-0.136,0.587-0.308,1.055-0.516,1.401c-0.336,0.56-0.771,1-1.304,1.318
		c-0.532,0.319-1.149,0.479-1.851,0.479c-0.748,0-1.461-0.202-2.141-0.605c-0.68-0.403-1.196-1.005-1.549-1.807
		c-0.353-0.801-0.528-1.747-0.528-2.835c0-1.134,0.18-2.136,0.538-3.006c0.359-0.87,0.881-1.522,1.564-1.958
		c0.684-0.435,1.404-0.652,2.16-0.652c0.557,0,1.101,0.132,1.634,0.396s0.974,0.638,1.322,1.121c0.242,0.337,0.436,0.783,0.58,1.339
		l-1.784,0.547c-0.127-0.565-0.354-0.992-0.679-1.281s-0.715-0.434-1.169-0.434c-0.68,0-1.209,0.353-1.587,1.059
		s-0.566,1.628-0.566,2.767c0,0.72,0.087,1.351,0.261,1.893c0.174,0.542,0.414,0.942,0.72,1.199
		c0.307,0.257,0.638,0.386,0.994,0.386c0.535,0,1.014-0.208,1.434-0.622c0.298-0.287,0.531-0.701,0.701-1.243L57.536,9.23z"/>
	<path fill="#FFFFFF" d="M59.295,1.769h1.911v10.454h-1.911V1.769z"/>
	<path fill="#FFFFFF" d="M62.951,1.769h7.392v1.797h-2.746v8.657h-1.912V3.566h-2.733V1.769z"/>
	<path fill="#FFFFFF" d="M73.135,1.769h2.033l3.174,10.454h-1.886l-0.74-2.453h-3.115l-0.738,2.453h-1.886L73.135,1.769z
		 M74.156,4.598l-1.118,3.648h2.219L74.156,4.598z"/>
	<path fill="#FFFFFF" d="M83.099,1.769h7.392v1.797h-2.746v8.657h-1.912V3.566h-2.733V1.769z"/>
	<path fill="#FFFFFF" d="M92.02,1.769h1.924V8.15c0,0.797,0.172,1.394,0.517,1.79c0.344,0.396,0.811,0.595,1.401,0.595
		c0.378,0,0.714-0.08,1.007-0.239c0.293-0.159,0.527-0.419,0.704-0.779c0.176-0.36,0.265-0.815,0.265-1.367V1.769h1.931v6.682
		c0,1.275-0.325,2.257-0.976,2.945c-0.649,0.688-1.602,1.032-2.854,1.032c-0.722,0-1.396-0.123-2.02-0.369
		c-0.331-0.132-0.607-0.305-0.828-0.519c-0.306-0.301-0.561-0.685-0.765-1.151S92.02,9.294,92.02,8.506V1.769z"/>
	<path fill="#8CBB11" d="M28.239,23.893c-0.136,0.587-0.308,1.055-0.516,1.401c-0.336,0.56-0.771,1-1.304,1.318
		c-0.532,0.319-1.149,0.479-1.851,0.479c-0.748,0-1.461-0.202-2.141-0.605c-0.68-0.403-1.196-1.005-1.549-1.807
		c-0.353-0.801-0.528-1.747-0.528-2.835c0-1.134,0.18-2.136,0.538-3.006c0.359-0.87,0.881-1.522,1.564-1.958
		c0.684-0.435,1.404-0.652,2.16-0.652c0.557,0,1.101,0.132,1.634,0.396s0.974,0.638,1.322,1.121c0.242,0.337,0.436,0.783,0.58,1.339
		l-1.784,0.547c-0.127-0.565-0.354-0.992-0.679-1.281s-0.715-0.434-1.169-0.434c-0.68,0-1.209,0.353-1.587,1.059
		s-0.566,1.628-0.566,2.767c0,0.72,0.087,1.351,0.261,1.893c0.174,0.542,0.414,0.942,0.72,1.199
		c0.307,0.257,0.638,0.386,0.994,0.386c0.535,0,1.014-0.208,1.434-0.622c0.298-0.287,0.531-0.701,0.701-1.243L28.239,23.893z"/>
	<path fill="#8CBB11" d="M33.413,16.227c0.918,0,1.656,0.164,2.218,0.492c0.734,0.428,1.295,1.043,1.682,1.845
		s0.58,1.854,0.58,3.156c0,1.768-0.389,3.104-1.166,4.011c-0.777,0.907-1.806,1.36-3.084,1.36c-1.291,0-2.335-0.461-3.132-1.384
		c-0.796-0.922-1.194-2.27-1.194-4.042c0-1.065,0.161-2.022,0.484-2.87c0.174-0.469,0.44-0.906,0.8-1.312
		c0.358-0.405,0.777-0.716,1.255-0.933S32.853,16.227,33.413,16.227z M33.604,18.017c-0.658,0-1.202,0.283-1.631,0.847
		c-0.43,0.565-0.644,1.499-0.644,2.801c0,1.28,0.217,2.2,0.652,2.761c0.436,0.56,0.993,0.84,1.673,0.84
		c0.646,0,1.183-0.279,1.612-0.837c0.429-0.558,0.644-1.473,0.644-2.744c0-1.421-0.262-2.421-0.784-2.999
		C34.724,18.24,34.216,18.017,33.604,18.017z"/>
	<path fill="#8CBB11" d="M38.428,16.432h7.392v1.797h-2.746v8.657h-1.912v-8.657h-2.733V16.432z"/>
	<path fill="#8CBB11" d="M47.546,16.432h1.911v10.454h-1.911V16.432z"/>
	<path fill="#8CBB11" d="M51.394,16.432h6.913v1.612l-4.538,7.038h4.653v1.804h-7.264v-1.401l4.702-7.256h-4.467V16.432z"/>
	<path fill="#8CBB11" d="M62.304,16.432h2.033l3.174,10.454h-1.886l-0.74-2.453H61.77l-0.738,2.453h-1.886L62.304,16.432z
		 M63.325,19.261l-1.118,3.648h2.219L63.325,19.261z"/>
	<path fill="#8CBB11" d="M75.905,23.893c-0.136,0.587-0.308,1.055-0.516,1.401c-0.336,0.56-0.771,1-1.304,1.318
		c-0.532,0.319-1.149,0.479-1.851,0.479c-0.748,0-1.461-0.202-2.141-0.605c-0.68-0.403-1.196-1.005-1.549-1.807
		c-0.353-0.801-0.528-1.747-0.528-2.835c0-1.134,0.18-2.136,0.538-3.006c0.359-0.87,0.881-1.522,1.564-1.958
		c0.684-0.435,1.404-0.652,2.16-0.652c0.557,0,1.101,0.132,1.634,0.396s0.974,0.638,1.322,1.121c0.242,0.337,0.436,0.783,0.58,1.339
		l-1.784,0.547c-0.127-0.565-0.354-0.992-0.679-1.281s-0.715-0.434-1.169-0.434c-0.68,0-1.209,0.353-1.587,1.059
		s-0.566,1.628-0.566,2.767c0,0.72,0.087,1.351,0.261,1.893c0.174,0.542,0.414,0.942,0.72,1.199
		c0.307,0.257,0.638,0.386,0.994,0.386c0.535,0,1.014-0.208,1.434-0.622c0.298-0.287,0.531-0.701,0.701-1.243L75.905,23.893z"/>
	<path fill="#8CBB11" d="M77.664,16.432h1.911v10.454h-1.911V16.432z"/>
	<path fill="#8CBB11" d="M85.571,16.227c0.918,0,1.656,0.164,2.218,0.492c0.734,0.428,1.295,1.043,1.682,1.845
		s0.58,1.854,0.58,3.156c0,1.768-0.389,3.104-1.166,4.011c-0.777,0.907-1.806,1.36-3.084,1.36c-1.291,0-2.335-0.461-3.132-1.384
		c-0.796-0.922-1.194-2.27-1.194-4.042c0-1.065,0.161-2.022,0.484-2.87c0.174-0.469,0.44-0.906,0.8-1.312
		c0.358-0.405,0.777-0.716,1.255-0.933S85.011,16.227,85.571,16.227z M85.763,18.017c-0.658,0-1.202,0.283-1.631,0.847
		c-0.43,0.565-0.644,1.499-0.644,2.801c0,1.28,0.217,2.2,0.652,2.761c0.436,0.56,0.993,0.84,1.673,0.84
		c0.646,0,1.183-0.279,1.612-0.837c0.429-0.558,0.644-1.473,0.644-2.744c0-1.421-0.262-2.421-0.784-2.999
		C86.882,18.24,86.374,18.017,85.763,18.017z M86.145,13.542h2.077l-2.497,2.152h-1.319L86.145,13.542z"/>
	<path fill="#8CBB11" d="M91.789,16.432h2.027l4.001,7.017v-7.017h1.898v10.454h-1.898l-4.11-7.29v7.29h-1.918V16.432z"/>
	<path fill="#FFFFFF" d="M4.702,30.89c0.918,0,1.656,0.164,2.218,0.492c0.734,0.428,1.295,1.043,1.682,1.845s0.58,1.854,0.58,3.156
		c0,1.768-0.389,3.104-1.166,4.011c-0.777,0.907-1.806,1.36-3.084,1.36c-1.291,0-2.335-0.461-3.132-1.384
		c-0.796-0.922-1.194-2.27-1.194-4.042c0-1.065,0.161-2.022,0.484-2.87c0.174-0.469,0.44-0.906,0.8-1.312
		c0.358-0.405,0.777-0.716,1.255-0.933S4.142,30.89,4.702,30.89z M4.894,32.68c-0.658,0-1.202,0.283-1.631,0.847
		c-0.43,0.565-0.644,1.499-0.644,2.801c0,1.28,0.217,2.2,0.652,2.761c0.436,0.56,0.993,0.84,1.673,0.84
		c0.646,0,1.183-0.279,1.612-0.837C6.985,38.535,7.2,37.62,7.2,36.349c0-1.421-0.262-2.421-0.784-2.999
		C6.013,32.903,5.505,32.68,4.894,32.68z"/>
	<path fill="#FFFFFF" d="M10.921,31.095h2.027l4.001,7.017v-7.017h1.898v10.454h-1.898l-4.11-7.29v7.29h-1.918V31.095z"/>
	<path fill="#FFFFFF" d="M21.09,31.095h1.905v8.65h4.026v1.804H21.09V31.095z"/>
	<path fill="#FFFFFF" d="M28.742,31.095h1.911v10.454h-1.911V31.095z"/>
	<path fill="#FFFFFF" d="M33.081,31.095h2.027l4.001,7.017v-7.017h1.898v10.454h-1.898l-4.11-7.29v7.29h-1.918V31.095z"/>
	<path fill="#FFFFFF" d="M43.295,31.095h6.538v1.817h-4.62v2.303h2.816v1.551h-2.816v2.979h4.62v1.804h-6.538V31.095z"/>
	<path fill="#FFFFFF" d="M57.894,31.095h2.033l3.174,10.454h-1.886l-0.74-2.453h-3.115l-0.738,2.453h-1.886L57.894,31.095z
		 M58.915,33.924l-1.118,3.648h2.219L58.915,33.924z"/>
	<path fill="#FFFFFF" d="M64.474,31.095h1.905v4.127h3.67v-4.127h1.925v10.454h-1.925v-4.523h-3.67v4.523h-1.905V31.095z"/>
	<path fill="#FFFFFF" d="M77.816,30.89c0.918,0,1.656,0.164,2.218,0.492c0.734,0.428,1.295,1.043,1.682,1.845s0.58,1.854,0.58,3.156
		c0,1.768-0.389,3.104-1.166,4.011c-0.777,0.907-1.806,1.36-3.084,1.36c-1.291,0-2.335-0.461-3.132-1.384
		c-0.796-0.922-1.194-2.27-1.194-4.042c0-1.065,0.161-2.022,0.484-2.87c0.174-0.469,0.44-0.906,0.8-1.312
		c0.358-0.405,0.777-0.716,1.255-0.933S77.256,30.89,77.816,30.89z M78.008,32.68c-0.658,0-1.202,0.283-1.631,0.847
		c-0.43,0.565-0.644,1.499-0.644,2.801c0,1.28,0.217,2.2,0.652,2.761c0.436,0.56,0.993,0.84,1.673,0.84
		c0.646,0,1.183-0.279,1.612-0.837c0.429-0.558,0.644-1.473,0.644-2.744c0-1.421-0.262-2.421-0.784-2.999
		C79.127,32.903,78.619,32.68,78.008,32.68z"/>
	<path fill="#FFFFFF" d="M84.079,31.095h2.632c1.414,0,2.393,0.114,2.934,0.342c0.542,0.228,0.963,0.604,1.265,1.127
		c0.302,0.524,0.453,1.125,0.453,1.804c0,0.625-0.137,1.14-0.408,1.548s-0.743,0.757-1.414,1.049l1.753,4.584h-1.9l-1.634-4.202
		h-1.756v4.202h-1.924V31.095z M86.003,32.919v2.815h1.536c0.561,0,1.038-0.171,1.434-0.512c0.259-0.228,0.389-0.544,0.389-0.95
		c0-0.387-0.145-0.709-0.434-0.967s-0.752-0.386-1.389-0.386H86.003z"/>
	<path fill="#FFFFFF" d="M95.41,31.095h2.033l3.174,10.454h-1.886l-0.74-2.453h-3.115l-0.738,2.453h-1.886L95.41,31.095z
		 M96.432,33.924l-1.118,3.648h2.219L96.432,33.924z"/>
</g>
<polygon fill="#8CBB11" points="15.233,4.918 15.233,26.622 4.381,15.77 "/>
<g>
</g>
<g>
</g>
<g>
</g>
<g>
</g>
<g>
</g>
<g>
</g>
</svg>
