<?xml version="1.0" encoding="utf-8"?>
<!-- Generator: Adobe Illustrator 17.0.0, SVG Export Plug-In . SVG Version: 6.00 Build 0)  -->
<!DOCTYPE svg PUBLIC "-//W3C//DTD SVG 1.1//EN" "http://www.w3.org/Graphics/SVG/1.1/DTD/svg11.dtd">
<svg version="1.1" id="Capa_1" xmlns="http://www.w3.org/2000/svg" xmlns:xlink="http://www.w3.org/1999/xlink" x="0px" y="0px"
	 width="148px" height="44.548px" viewBox="0 0 148 44.548" enable-background="new 0 0 148 44.548" xml:space="preserve">
<g>
	<path fill="#FFFFFF" d="M2.376,9.298c0.323,0.533,0.641,0.904,0.953,1.114s0.681,0.314,1.105,0.314c0.51,0,0.907-0.136,1.191-0.407
		s0.427-0.591,0.427-0.96c0-0.323-0.112-0.608-0.338-0.854C5.485,8.26,4.974,8.023,4.18,7.795C3.097,7.49,2.321,7.117,1.854,6.675
		C1.272,6.119,0.981,5.431,0.981,4.611c0-0.879,0.291-1.607,0.872-2.183C2.436,1.852,3.234,1.564,4.25,1.564
		c0.577,0,1.093,0.104,1.545,0.311c0.452,0.207,0.836,0.473,1.15,0.796c0.203,0.214,0.407,0.508,0.611,0.881L5.951,4.256
		C5.679,3.842,5.4,3.539,5.116,3.347S4.515,3.061,4.167,3.061c-0.429,0-0.772,0.128-1.029,0.386S2.752,4.015,2.752,4.379
		c0,0.292,0.106,0.542,0.319,0.751c0.208,0.21,0.73,0.426,1.567,0.649S6.109,6.263,6.54,6.559C6.972,6.854,7.294,7.24,7.509,7.713
		S7.83,8.674,7.83,9.175c0,0.528-0.138,1.059-0.414,1.592C7.141,11.3,6.73,11.71,6.187,11.997c-0.544,0.287-1.168,0.431-1.873,0.431
		c-0.667,0-1.246-0.12-1.736-0.359s-0.906-0.561-1.246-0.967c-0.221-0.26-0.443-0.622-0.669-1.086L2.376,9.298z"/>
	<path fill="#FFFFFF" d="M13.297,1.564c0.918,0,1.656,0.164,2.218,0.492c0.734,0.428,1.295,1.043,1.682,1.845s0.58,1.854,0.58,3.156
		c0,1.768-0.389,3.104-1.166,4.011c-0.777,0.907-1.806,1.36-3.084,1.36c-1.291,0-2.335-0.461-3.132-1.384
		C9.599,10.122,9.2,8.774,9.2,7.002c0-1.065,0.161-2.022,0.484-2.87c0.174-0.469,0.44-0.906,0.8-1.312
		c0.358-0.405,0.777-0.716,1.255-0.933S12.736,1.564,13.297,1.564z M13.488,3.354c-0.658,0-1.202,0.283-1.631,0.847
		c-0.43,0.565-0.644,1.499-0.644,2.801c0,1.28,0.217,2.2,0.652,2.761c0.436,0.56,0.993,0.84,1.673,0.84
		c0.646,0,1.183-0.279,1.612-0.837c0.429-0.558,0.644-1.473,0.644-2.744c0-1.421-0.262-2.421-0.784-2.999
		C14.607,3.577,14.1,3.354,13.488,3.354z"/>
	<path fill="#FFFFFF" d="M19.497,1.769h1.905v8.65h4.026v1.804h-5.932V1.769z"/>
	<path fill="#FFFFFF" d="M27.149,1.769h1.911v10.454h-1.911V1.769z"/>
	<path fill="#FFFFFF" d="M38.86,9.23c-0.136,0.587-0.308,1.055-0.516,1.401c-0.336,0.56-0.771,1-1.304,1.318
		c-0.532,0.319-1.149,0.479-1.851,0.479c-0.748,0-1.461-0.202-2.141-0.605c-0.68-0.403-1.196-1.005-1.549-1.807
		c-0.353-0.801-0.528-1.747-0.528-2.835c0-1.134,0.18-2.136,0.538-3.006c0.359-0.87,0.881-1.522,1.564-1.958
		c0.684-0.435,1.404-0.652,2.16-0.652c0.557,0,1.101,0.132,1.634,0.396s0.974,0.638,1.322,1.121c0.242,0.337,0.436,0.783,0.58,1.339
		l-1.784,0.547c-0.127-0.565-0.354-0.992-0.679-1.281s-0.715-0.434-1.169-0.434c-0.68,0-1.209,0.353-1.587,1.059
		s-0.566,1.628-0.566,2.767c0,0.72,0.087,1.351,0.261,1.893c0.174,0.542,0.414,0.942,0.72,1.199
		c0.307,0.257,0.638,0.386,0.994,0.386c0.535,0,1.014-0.208,1.434-0.622c0.298-0.287,0.531-0.701,0.701-1.243L38.86,9.23z"/>
	<path fill="#FFFFFF" d="M40.619,1.769h1.911v10.454h-1.911V1.769z"/>
	<path fill="#FFFFFF" d="M44.275,1.769h7.392v1.797h-2.746v8.657h-1.912V3.566h-2.733V1.769z"/>
	<path fill="#FFFFFF" d="M54.459,1.769h2.033l3.174,10.454H57.78L57.04,9.77h-3.115l-0.738,2.453h-1.886L54.459,1.769z M55.48,4.598
		l-1.118,3.648h2.219L55.48,4.598z"/>
	<path fill="#FFFFFF" d="M64.423,1.769h7.392v1.797h-2.746v8.657h-1.912V3.566h-2.733V1.769z"/>
	<path fill="#FFFFFF" d="M73.344,1.769h1.924V8.15c0,0.797,0.172,1.394,0.517,1.79c0.344,0.396,0.811,0.595,1.401,0.595
		c0.378,0,0.714-0.08,1.007-0.239c0.293-0.159,0.527-0.419,0.704-0.779c0.176-0.36,0.265-0.815,0.265-1.367V1.769h1.931v6.682
		c0,1.275-0.325,2.257-0.976,2.945c-0.649,0.688-1.602,1.032-2.854,1.032c-0.722,0-1.396-0.123-2.02-0.369
		c-0.331-0.132-0.607-0.305-0.828-0.519c-0.306-0.301-0.561-0.685-0.765-1.151s-0.306-1.094-0.306-1.882V1.769z"/>
	<path fill="#8CBB11" d="M8.544,23.893c-0.136,0.587-0.308,1.055-0.516,1.401c-0.336,0.56-0.771,1-1.304,1.318
		c-0.532,0.319-1.149,0.479-1.851,0.479c-0.748,0-1.461-0.202-2.141-0.605c-0.68-0.403-1.196-1.005-1.549-1.807
		c-0.353-0.801-0.528-1.747-0.528-2.835c0-1.134,0.18-2.136,0.538-3.006c0.359-0.87,0.881-1.522,1.564-1.958
		c0.684-0.435,1.404-0.652,2.16-0.652c0.557,0,1.101,0.132,1.634,0.396s0.974,0.638,1.322,1.121c0.242,0.337,0.436,0.783,0.58,1.339
		L6.671,19.63c-0.127-0.565-0.354-0.992-0.679-1.281s-0.715-0.434-1.169-0.434c-0.68,0-1.209,0.353-1.587,1.059
		S2.67,20.602,2.67,21.741c0,0.72,0.087,1.351,0.261,1.893c0.174,0.542,0.414,0.942,0.72,1.199c0.307,0.257,0.638,0.386,0.994,0.386
		c0.535,0,1.014-0.208,1.434-0.622c0.298-0.287,0.531-0.701,0.701-1.243L8.544,23.893z"/>
	<path fill="#8CBB11" d="M13.718,16.227c0.918,0,1.656,0.164,2.218,0.492c0.734,0.428,1.295,1.043,1.682,1.845
		s0.58,1.854,0.58,3.156c0,1.768-0.389,3.104-1.166,4.011c-0.777,0.907-1.806,1.36-3.084,1.36c-1.291,0-2.335-0.461-3.132-1.384
		c-0.796-0.922-1.194-2.27-1.194-4.042c0-1.065,0.161-2.022,0.484-2.87c0.174-0.469,0.44-0.906,0.8-1.312
		c0.358-0.405,0.777-0.716,1.255-0.933S13.157,16.227,13.718,16.227z M13.909,18.017c-0.658,0-1.202,0.283-1.631,0.847
		c-0.43,0.565-0.644,1.499-0.644,2.801c0,1.28,0.217,2.2,0.652,2.761c0.436,0.56,0.993,0.84,1.673,0.84
		c0.646,0,1.183-0.279,1.612-0.837c0.429-0.558,0.644-1.473,0.644-2.744c0-1.421-0.262-2.421-0.784-2.999
		C15.028,18.24,14.521,18.017,13.909,18.017z"/>
	<path fill="#8CBB11" d="M18.732,16.432h7.392v1.797h-2.746v8.657h-1.912v-8.657h-2.733V16.432z"/>
	<path fill="#8CBB11" d="M27.851,16.432h1.911v10.454h-1.911V16.432z"/>
	<path fill="#8CBB11" d="M31.698,16.432h6.913v1.612l-4.538,7.038h4.653v1.804h-7.264v-1.401l4.702-7.256h-4.467V16.432z"/>
	<path fill="#8CBB11" d="M42.608,16.432h2.033l3.174,10.454H45.93l-0.74-2.453h-3.115l-0.738,2.453H39.45L42.608,16.432z
		 M43.63,19.261l-1.118,3.648h2.219L43.63,19.261z"/>
	<path fill="#8CBB11" d="M56.21,23.893c-0.136,0.587-0.308,1.055-0.516,1.401c-0.336,0.56-0.771,1-1.304,1.318
		c-0.532,0.319-1.149,0.479-1.851,0.479c-0.748,0-1.461-0.202-2.141-0.605c-0.68-0.403-1.196-1.005-1.549-1.807
		c-0.353-0.801-0.528-1.747-0.528-2.835c0-1.134,0.18-2.136,0.538-3.006c0.359-0.87,0.881-1.522,1.564-1.958
		c0.684-0.435,1.404-0.652,2.16-0.652c0.557,0,1.101,0.132,1.634,0.396s0.974,0.638,1.322,1.121c0.242,0.337,0.436,0.783,0.58,1.339
		l-1.784,0.547c-0.127-0.565-0.354-0.992-0.679-1.281s-0.715-0.434-1.169-0.434c-0.68,0-1.209,0.353-1.587,1.059
		s-0.566,1.628-0.566,2.767c0,0.72,0.087,1.351,0.261,1.893c0.174,0.542,0.414,0.942,0.72,1.199
		c0.307,0.257,0.638,0.386,0.994,0.386c0.535,0,1.014-0.208,1.434-0.622c0.298-0.287,0.531-0.701,0.701-1.243L56.21,23.893z"/>
	<path fill="#8CBB11" d="M57.969,16.432h1.911v10.454h-1.911V16.432z"/>
	<path fill="#8CBB11" d="M65.876,16.227c0.918,0,1.656,0.164,2.218,0.492c0.734,0.428,1.295,1.043,1.682,1.845
		s0.58,1.854,0.58,3.156c0,1.768-0.389,3.104-1.166,4.011c-0.777,0.907-1.806,1.36-3.084,1.36c-1.291,0-2.335-0.461-3.132-1.384
		c-0.796-0.922-1.194-2.27-1.194-4.042c0-1.065,0.161-2.022,0.484-2.87c0.174-0.469,0.44-0.906,0.8-1.312
		c0.358-0.405,0.777-0.716,1.255-0.933S65.315,16.227,65.876,16.227z M66.067,18.017c-0.658,0-1.202,0.283-1.631,0.847
		c-0.43,0.565-0.644,1.499-0.644,2.801c0,1.28,0.217,2.2,0.652,2.761c0.436,0.56,0.993,0.84,1.673,0.84
		c0.646,0,1.183-0.279,1.612-0.837c0.429-0.558,0.644-1.473,0.644-2.744c0-1.421-0.262-2.421-0.784-2.999
		C67.187,18.24,66.679,18.017,66.067,18.017z M66.449,13.542h2.077l-2.497,2.152H64.71L66.449,13.542z"/>
	<path fill="#8CBB11" d="M72.094,16.432h2.027l4.001,7.017v-7.017h1.898v10.454h-1.898l-4.11-7.29v7.29h-1.918V16.432z"/>
	<path fill="#FFFFFF" d="M4.74,30.89c0.918,0,1.656,0.164,2.218,0.492c0.734,0.428,1.295,1.043,1.682,1.845s0.58,1.854,0.58,3.156
		c0,1.768-0.389,3.104-1.166,4.011c-0.777,0.907-1.806,1.36-3.084,1.36c-1.291,0-2.335-0.461-3.132-1.384
		c-0.796-0.922-1.194-2.27-1.194-4.042c0-1.065,0.161-2.022,0.484-2.87c0.174-0.469,0.44-0.906,0.8-1.312
		c0.358-0.405,0.777-0.716,1.255-0.933S4.18,30.89,4.74,30.89z M4.932,32.68c-0.658,0-1.202,0.283-1.631,0.847
		c-0.43,0.565-0.644,1.499-0.644,2.801c0,1.28,0.217,2.2,0.652,2.761c0.436,0.56,0.993,0.84,1.673,0.84
		c0.646,0,1.183-0.279,1.612-0.837c0.429-0.558,0.644-1.473,0.644-2.744c0-1.421-0.262-2.421-0.784-2.999
		C6.051,32.903,5.543,32.68,4.932,32.68z"/>
	<path fill="#FFFFFF" d="M10.959,31.095h2.027l4.001,7.017v-7.017h1.898v10.454h-1.898l-4.11-7.29v7.29h-1.918V31.095z"/>
	<path fill="#FFFFFF" d="M21.128,31.095h1.905v8.65h4.026v1.804h-5.932V31.095z"/>
	<path fill="#FFFFFF" d="M28.78,31.095h1.911v10.454H28.78V31.095z"/>
	<path fill="#FFFFFF" d="M33.119,31.095h2.027l4.001,7.017v-7.017h1.898v10.454h-1.898l-4.11-7.29v7.29h-1.918V31.095z"/>
	<path fill="#FFFFFF" d="M43.333,31.095h6.538v1.817h-4.62v2.303h2.816v1.551h-2.816v2.979h4.62v1.804h-6.538V31.095z"/>
	<path fill="#FFFFFF" d="M57.932,31.095h2.033l3.174,10.454h-1.886l-0.74-2.453h-3.115l-0.738,2.453h-1.886L57.932,31.095z
		 M58.953,33.924l-1.118,3.648h2.219L58.953,33.924z"/>
	<path fill="#FFFFFF" d="M64.512,31.095h1.905v4.127h3.67v-4.127h1.925v10.454h-1.925v-4.523h-3.67v4.523h-1.905V31.095z"/>
	<path fill="#FFFFFF" d="M77.854,30.89c0.918,0,1.656,0.164,2.218,0.492c0.734,0.428,1.295,1.043,1.682,1.845s0.58,1.854,0.58,3.156
		c0,1.768-0.389,3.104-1.166,4.011c-0.777,0.907-1.806,1.36-3.084,1.36c-1.291,0-2.335-0.461-3.132-1.384
		c-0.796-0.922-1.194-2.27-1.194-4.042c0-1.065,0.161-2.022,0.484-2.87c0.174-0.469,0.44-0.906,0.8-1.312
		c0.358-0.405,0.777-0.716,1.255-0.933S77.294,30.89,77.854,30.89z M78.046,32.68c-0.658,0-1.202,0.283-1.631,0.847
		c-0.43,0.565-0.644,1.499-0.644,2.801c0,1.28,0.217,2.2,0.652,2.761c0.436,0.56,0.993,0.84,1.673,0.84
		c0.646,0,1.183-0.279,1.612-0.837c0.429-0.558,0.644-1.473,0.644-2.744c0-1.421-0.262-2.421-0.784-2.999
		C79.165,32.903,78.657,32.68,78.046,32.68z"/>
	<path fill="#FFFFFF" d="M84.117,31.095h2.632c1.414,0,2.393,0.114,2.934,0.342c0.542,0.228,0.963,0.604,1.265,1.127
		c0.302,0.524,0.453,1.125,0.453,1.804c0,0.625-0.137,1.14-0.408,1.548s-0.743,0.757-1.414,1.049l1.753,4.584h-1.9l-1.634-4.202
		h-1.756v4.202h-1.924V31.095z M86.041,32.919v2.815h1.536c0.561,0,1.038-0.171,1.434-0.512c0.259-0.228,0.389-0.544,0.389-0.95
		c0-0.387-0.145-0.709-0.434-0.967s-0.752-0.386-1.389-0.386H86.041z"/>
	<path fill="#FFFFFF" d="M95.448,31.095h2.033l3.174,10.454H98.77l-0.74-2.453h-3.115l-0.738,2.453H92.29L95.448,31.095z
		 M96.47,33.924l-1.118,3.648h2.219L96.47,33.924z"/>
</g>
<path fill="#FFFFFF" d="M130.887,42.389c1.879-0.682,3.642-1.642,5.306-2.743c0.345-0.228,0.773-0.474,1.183-0.755
	c1.071-0.454,1.936-1.19,2.701-2.151c1.299-1.632,2.828-3.568,3.643-5.488c0.036-0.086-0.055-0.166-0.131-0.101
	c-0.06,0.052-0.117,0.11-0.176,0.163c0-0.001,0.001-0.001,0.001-0.002c0.076-0.125,0.157-0.247,0.23-0.374
	c0.017-0.029,0.015-0.059,0.012-0.088c0.405-0.808,0.711-1.663,0.968-2.533c0.196-0.531,0.355-1.083,0.457-1.669
	c0.027-0.154-0.036-0.275-0.132-0.352c0.194-0.612,0.347-1.239,0.436-1.89c0.389-2.854,0.237-6.545-1.328-9.149
	c0.059-0.042,0.094-0.118,0.051-0.201c-0.122-0.232-0.255-0.456-0.384-0.683c0.001-0.048-0.006-0.098-0.03-0.153
	c-0.575-1.307-1.305-2.508-2.129-3.638c-0.645-1.02-1.352-2.002-2.113-2.94c-1.155-1.422-2.378-2.874-4.233-3.308
	c-0.098-0.023-0.181-0.008-0.245,0.03c-1.359-1.014-3.064-1.612-4.696-2.019c-0.185-0.046-0.372-0.085-0.558-0.125
	c-0.776-0.278-1.577-0.489-2.388-0.617c-1.751-0.437-3.645-0.539-5.34-0.479c-1.603,0.057-3.225,0.42-4.707,1.077
	c-1.928,0.519-3.857,1.454-5.248,2.59c-1.187,0.97-2.299,2.111-3.365,3.212c-0.366,0.377-0.702,0.765-0.97,1.187
	c-0.004,0.005-0.01,0.008-0.014,0.013c-0.957,0.991-1.545,2.288-2.158,3.504c-1.232,2.443-2.229,4.943-2.124,7.728
	c0.072,1.9,0.362,4.028,0.939,5.984c0.209,1.07,0.494,2.104,0.802,3.028c0.957,2.88,2.561,5.557,4.66,7.749
	c3.285,3.432,8.455,6.032,13.402,5.94C125.668,43.835,128.652,43.2,130.887,42.389z M131.212,39.93
	c-1.077,0.229-2.148,0.476-3.216,0.738c0.315-0.121,0.628-0.247,0.939-0.379c0.992-0.263,1.993-0.492,3.009-0.684
	C131.704,39.718,131.463,39.83,131.212,39.93z M126.142,40.223c-0.038-0.036-0.075-0.073-0.113-0.109
	c0.199-0.093,0.396-0.191,0.591-0.293c0.191,0.072,0.388-0.06,0.436-0.23c0.128-0.069,0.257-0.139,0.385-0.21
	c1.241-0.395,2.504-0.713,3.788-0.952c0,0.003-0.002,0.006-0.001,0.009c-0.734,0.382-1.483,0.729-2.246,1.043
	C128.026,39.697,127.078,39.943,126.142,40.223z M127.235,38.386c0.449-0.198,0.901-0.386,1.353-0.578
	c0.048,0.027,0.099,0.044,0.151,0.049c-0.296,0.16-0.593,0.316-0.886,0.473c-0.273,0.146-0.547,0.296-0.824,0.444
	c-0.167,0.05-0.333,0.106-0.5,0.159c-0.07-0.061-0.141-0.12-0.212-0.181C126.641,38.629,126.955,38.509,127.235,38.386z
	 M124.543,38.689c-0.159-0.156-0.315-0.314-0.473-0.471c0.035-0.015,0.073-0.028,0.107-0.043c0.184,0.15,0.369,0.297,0.557,0.438
	C124.67,38.638,124.606,38.662,124.543,38.689z M125.784,35.493c0.12-0.018,0.225-0.11,0.265-0.224
	c0.008,0.005,0.015,0.01,0.023,0.016c-0.061,0.146-0.112,0.297-0.141,0.466c-0.002,0.012,0.001,0.022,0.001,0.033
	c-0.155,0.209-0.323,0.404-0.497,0.591c-0.127-0.076-0.244-0.166-0.367-0.248c-0.036-0.073-0.072-0.146-0.108-0.219
	c0.027,0.022,0.053,0.045,0.08,0.067C125.391,36.256,125.988,35.927,125.784,35.493z M126.993,35.273
	c0.027,0.01,0.053,0.02,0.08,0.03c0.053,0.092,0.106,0.184,0.159,0.276c-0.238,0.164-0.474,0.332-0.717,0.488
	C126.683,35.811,126.838,35.542,126.993,35.273z M127.561,36.152c0.019,0.033,0.039,0.067,0.058,0.101
	c-0.253,0.269-0.5,0.543-0.766,0.796c-0.02-0.013-0.039-0.028-0.063-0.036c-0.106-0.036-0.208-0.079-0.311-0.121
	C126.846,36.656,127.205,36.406,127.561,36.152z M127.971,36.866c0.07,0.122,0.141,0.245,0.211,0.367
	c-0.167-0.014-0.334-0.03-0.502-0.047C127.78,37.082,127.874,36.972,127.971,36.866z M130.908,37.491
	c1.763-1.203,3.521-2.414,5.28-3.622c0.557-0.382,1.13-0.753,1.695-1.136c0.008,0.002,0.016,0.004,0.024,0.006
	c-0.004,0.003-0.008,0.007-0.011,0.011c-2.202,1.419-4.249,3.047-6.088,4.937c-0.685,0.108-1.364,0.239-2.039,0.385
	c0.282-0.174,0.557-0.358,0.823-0.552C130.689,37.561,130.8,37.565,130.908,37.491z M126.246,37.591
	c-0.216,0.185-0.438,0.362-0.665,0.533c-0.164-0.139-0.327-0.281-0.492-0.42c0.165-0.087,0.33-0.173,0.492-0.265
	C125.796,37.503,126.017,37.555,126.246,37.591z M135.668,37.781c-0.127,0.15-0.112,0.322-0.032,0.449
	c-0.518,0.313-1.065,0.585-1.633,0.829c0.005-0.02,0.005-0.041,0.006-0.061c0.738-0.534,1.439-1.106,2.102-1.718
	C135.962,37.445,135.812,37.611,135.668,37.781z M139.418,32.681c-0.701,0.822-1.416,1.63-2.162,2.407
	c-0.175,0.128-0.351,0.253-0.524,0.382c-1.322,0.99-2.717,1.975-3.752,3.274c-0.436,0.064-0.871,0.133-1.307,0.207
	c0.484-0.268,0.965-0.545,1.439-0.841c0.159-0.099,0.181-0.34,0.083-0.481c1.623-1.341,3.202-2.727,4.76-4.14
	c0.445-0.305,0.899-0.599,1.36-0.881C139.346,32.638,139.379,32.663,139.418,32.681z M137.755,31.851
	c-2.235,1.108-4.317,2.475-6.226,4.091c-0.018,0.004-0.035,0.003-0.053,0.01c-0.809,0.319-1.616,0.643-2.424,0.966
	c-0.144-0.263-0.287-0.526-0.431-0.788c0.177-0.209,0.355-0.418,0.526-0.635c0.117,0.149,0.327,0.234,0.518,0.122
	c0.412-0.242,0.821-0.492,1.228-0.743c-0.33,0.253-0.658,0.51-0.98,0.78c-0.336,0.282,0.1,0.835,0.466,0.604
	c1.882-1.185,3.735-2.415,5.599-3.628c0.32-0.208,0.638-0.417,0.956-0.627c0.299-0.139,0.597-0.277,0.9-0.405
	C137.808,31.684,137.781,31.768,137.755,31.851z M135.22,29.525c-0.379,0.286-0.758,0.57-1.132,0.854
	c-0.41,0.23-0.808,0.48-1.207,0.728c-0.009-0.018-0.019-0.036-0.028-0.054c0.771-0.602,1.563-1.177,2.366-1.735
	C135.22,29.387,135.22,29.456,135.22,29.525z M138.301,29.114c-0.351,0.268-0.709,0.528-1.074,0.779
	c0.101-0.146,0.201-0.293,0.3-0.44C137.784,29.337,138.042,29.223,138.301,29.114z M132.479,30.321c-0.051-0.1-0.103-0.2-0.154-0.3
	c0.118-0.101,0.236-0.202,0.354-0.302c0.192-0.028,0.385-0.056,0.577-0.083C132.998,29.864,132.738,30.092,132.479,30.321z
	 M131.04,30.176c-0.144,0.14-0.287,0.283-0.431,0.423c-0.2,0.179-0.395,0.364-0.591,0.546c0.312-0.358,0.632-0.709,0.954-1.059
	C130.994,30.116,131.017,30.146,131.04,30.176z M131.489,30.759c0.066,0.085,0.131,0.171,0.197,0.257
	c-0.047,0.037-0.091,0.077-0.138,0.115c-0.193,0.036-0.384,0.076-0.576,0.113C131.146,31.085,131.313,30.917,131.489,30.759z
	 M135.627,30.378c-0.084,0.165-0.164,0.333-0.245,0.5c-1.877,1.004-3.665,2.167-5.364,3.472c0.065-0.088,0.131-0.175,0.195-0.264
	c0.013-0.018,0.016-0.035,0.025-0.053c1.291-0.861,2.539-1.781,3.764-2.736C134.536,30.978,135.076,30.669,135.627,30.378z
	 M138.283,30.226c-0.009,0.027-0.018,0.054-0.027,0.082c-0.451,0.364-0.917,0.713-1.399,1.048c-0.374,0.165-0.744,0.335-1.109,0.515
	c0.09-0.111,0.175-0.225,0.263-0.337c0.386-0.257,0.768-0.519,1.15-0.781C137.532,30.57,137.907,30.396,138.283,30.226z
	 M127.795,32.785c-0.013,0.016-0.024,0.034-0.037,0.05c-0.124,0.053-0.248,0.102-0.371,0.156c-0.127,0.056-0.249,0.121-0.374,0.18
	c-0.05-0.093-0.1-0.186-0.15-0.279c0.347-0.092,0.695-0.177,1.042-0.263C127.868,32.681,127.83,32.731,127.795,32.785z
	 M117.788,33.632c-0.108-0.062-0.215-0.127-0.325-0.184c-0.765-0.98-1.486-1.998-2.193-3.027c-0.068-0.098-0.131-0.199-0.199-0.297
	c-0.006-0.214-0.024-0.426-0.049-0.637c0.251,0.365,0.494,0.735,0.743,1.102c0.027,0.067,0.053,0.135,0.081,0.201
	c0.044,0.106,0.118,0.176,0.201,0.217C116.636,31.877,117.211,32.755,117.788,33.632z M115.939,28.18
	c-0.071-0.268-0.144-0.535-0.214-0.803c0.145,0.315,0.291,0.629,0.439,0.942c0.046,0.098,0.129,0.142,0.22,0.152
	c0.151,0.254,0.302,0.508,0.457,0.76c0.118,0.192,0.24,0.38,0.359,0.571c0.009,0.019,0.017,0.039,0.026,0.058
	c0.016,0.035,0.04,0.06,0.063,0.083c0.053,0.085,0.108,0.169,0.162,0.254c-0.057,0.099-0.063,0.212-0.028,0.32
	C116.917,29.745,116.424,28.966,115.939,28.18z M112.044,28.119c0.085,0.348,0.165,0.697,0.262,1.042
	c0.078,0.278,0.374,0.331,0.573,0.214c0.395,0.575,0.8,1.145,1.216,1.707c0.665,0.898,1.347,1.784,2.028,2.669
	c-0.177-0.065-0.355-0.124-0.536-0.163c-0.012-0.003-0.023,0-0.034-0.002c-0.661-0.842-1.303-1.693-1.942-2.52
	c-0.792-1.027-1.561-2.07-2.319-3.121c0.061-0.268,0.112-0.538,0.147-0.81C111.636,27.466,111.837,27.794,112.044,28.119z
	 M115.186,34.43c-0.023-0.01-0.046-0.02-0.069-0.029c-1.131-1.479-2.277-2.95-3.36-4.459c0.506,0.681,1.015,1.359,1.534,2.03
	C113.915,32.777,114.542,33.607,115.186,34.43z M122.8,34.09c0.046,0.036,0.091,0.072,0.137,0.107
	c0.038,0.068,0.077,0.136,0.116,0.204c-0.03,0.021-0.061,0.041-0.091,0.063c-0.004,0.003-0.006,0.007-0.01,0.01
	c-0.125-0.105-0.249-0.21-0.374-0.315C122.652,34.135,122.726,34.113,122.8,34.09z M113.838,34.035
	c-0.016,0.004-0.032,0.008-0.047,0.014c-1.652-1.946-3.143-4.048-4.57-6.171c0.048-0.027,0.088-0.064,0.122-0.106
	C110.706,29.941,112.273,31.987,113.838,34.035z M112.568,34.372c-0.113,0.015-0.221,0.08-0.298,0.172
	c-0.127-0.153-0.251-0.308-0.378-0.461c-0.375-0.557-0.747-1.114-1.125-1.654C111.343,33.099,111.95,33.741,112.568,34.372z
	 M127.674,34.399c-0.03-0.055-0.06-0.111-0.09-0.166c0.034-0.061,0.068-0.122,0.103-0.183c0.171-0.199,0.339-0.392,0.494-0.581
	c0.012-0.005,0.024-0.011,0.035-0.016c0.068,0.051,0.151,0.079,0.237,0.072c0.043,0.073,0.086,0.147,0.129,0.22
	c-0.054,0.052-0.112,0.101-0.166,0.154c-0.267,0.262-0.004,0.622,0.288,0.608c-0.164,0.126-0.331,0.246-0.496,0.37
	c-0.031-0.058-0.07-0.112-0.125-0.154C127.945,34.616,127.812,34.506,127.674,34.399z M144.357,25.588
	c-0.536,2.074-1.735,3.973-3.048,5.781c0.073-0.255-0.16-0.534-0.45-0.377c-0.176,0.096-0.347,0.196-0.522,0.294
	c0.04-0.066,0.051-0.143,0.034-0.218c0.052-0.152,0.106-0.303,0.157-0.455c0.007-0.007,0.015-0.014,0.022-0.021
	c0.073-0.075,0.092-0.173,0.077-0.264c0.322-0.952,0.637-1.907,0.939-2.866c0.009,0.18,0.02,0.359,0.029,0.539
	c0.015,0.301,0.376,0.469,0.601,0.249c0.029-0.028,0.053-0.061,0.081-0.09c0.001,0.039,0.001,0.077,0.001,0.116
	c0.007,0.33,0.543,0.434,0.6,0.081c0.129-0.791,0.24-1.584,0.339-2.377c0.032-0.212,0.057-0.427,0.072-0.645
	c0.056-0.489,0.113-0.978,0.158-1.467c0.035,0.384,0.068,0.769,0.099,1.153c0.032,0.396,0.601,0.513,0.717,0.097
	c0.484-1.736,0.638-3.502,0.521-5.249C144.983,21.865,144.784,23.938,144.357,25.588z M137.727,26.696
	c0.044-0.151,0.082-0.303,0.123-0.454c0.303-0.272,0.604-0.547,0.908-0.818c0.002,0.018,0.002,0.036,0.004,0.055
	c-0.383,0.484-0.749,0.98-1.101,1.487c-0.555,0.317-1.101,0.648-1.642,0.987c0-0.018,0-0.036,0-0.055
	c0.38-0.346,0.76-0.69,1.141-1.034C137.343,27.012,137.641,26.99,137.727,26.696z M138.951,27.106
	c0.002,0.015,0.003,0.031,0.005,0.046c0.023,0.16,0.181,0.247,0.338,0.25c-0.093,0.237-0.18,0.476-0.268,0.714
	c-0.282,0.104-0.563,0.207-0.842,0.318C138.451,27.998,138.707,27.556,138.951,27.106z M137.619,23.333
	c-0.012,0.009-0.023,0.018-0.035,0.026c0-0.058-0.003-0.117-0.002-0.175c0.13-0.205,0.26-0.414,0.386-0.626
	c-0.047,0.248-0.105,0.494-0.156,0.741C137.749,23.282,137.682,23.287,137.619,23.333z M139.941,22.775
	c-0.028,0.598-0.215,1.228-0.478,1.848c-0.021,0.024-0.043,0.048-0.063,0.073c-0.03-0.419-0.059-0.838-0.075-1.258
	C139.53,23.217,139.735,22.996,139.941,22.775z M138.724,24.913c-0.06-0.017-0.127-0.014-0.191,0.02
	c-0.137,0.073-0.269,0.154-0.404,0.229c0.047-0.196,0.096-0.391,0.141-0.587c0.134-0.144,0.268-0.289,0.402-0.433
	C138.685,24.4,138.706,24.657,138.724,24.913z M141.977,22.129c-0.042-0.726-0.082-1.452-0.128-2.178
	c-0.017-0.268-0.029-0.542-0.04-0.819c0.063,0.081,0.126,0.162,0.189,0.244c0.052,0.067,0.118,0.108,0.188,0.13
	c0.036,0.238,0.06,0.478,0.092,0.717c-0.008,0.451-0.014,0.901-0.02,1.352c-0.047,0.111-0.092,0.222-0.137,0.333
	c-0.001,0.002-0.003,0.002-0.004,0.003C142.068,21.983,142.025,22.057,141.977,22.129z M143.98,18.978
	c0.08,0.652,0.118,1.307,0.117,1.964c-0.139-0.66-0.266-1.321-0.372-1.985C143.809,19.002,143.9,19.008,143.98,18.978z
	 M141.159,19.155c0.012,0.651,0.022,1.284,0.057,1.869c0.036,0.595,0.063,1.19,0.097,1.785c-0.1-0.004-0.204,0.029-0.271,0.096
	c-0.153,0.154-0.299,0.313-0.449,0.47c0.182-1.525,0.179-3.074,0.163-4.628C140.889,18.885,141.028,19.016,141.159,19.155z
	 M140.076,18.323c0.017,1.109,0.033,2.218-0.015,3.316c-0.028,0.016-0.06,0.023-0.084,0.048c-0.224,0.242-0.45,0.483-0.675,0.724
	c-0.001-0.057,0.002-0.114,0.002-0.171c0.148-0.152,0.177-0.413,0.005-0.543c0.002-1.257,0.041-2.515,0.121-3.772
	C139.646,18.056,139.862,18.188,140.076,18.323z M133.388,19.59c0.226,0.003,0.481,0.004,0.748,0.009
	c0.095,0.141,0.192,0.279,0.286,0.421c-0.21,0.021-0.419,0.049-0.628,0.069c-0.045,0.002-0.091,0.004-0.136,0.005
	C133.57,19.926,133.478,19.759,133.388,19.59z M132.69,20.137c-0.077,0.003-0.153,0.007-0.23,0.01
	c-0.149-0.199-0.297-0.397-0.446-0.596c0.122,0.004,0.245,0.006,0.367,0.011C132.485,19.753,132.588,19.945,132.69,20.137z
	 M137.765,19.944c0.063-0.261,0.113-0.525,0.173-0.787c0.187,0.016,0.375,0.029,0.562,0.045c-0.031,0.239-0.056,0.48-0.09,0.718
	c-0.048,0-0.096,0.014-0.142,0.032c-0.038-0.015-0.079-0.024-0.126-0.022C138.017,19.935,137.891,19.94,137.765,19.944z
	 M130.891,19.518c0.17,0.227,0.339,0.454,0.509,0.68c-0.012,0.001-0.023,0.001-0.035,0.002c-0.34-0.054-0.68-0.105-1.02-0.157
	c-0.1-0.181-0.2-0.361-0.3-0.542c0.097,0.001,0.194-0.001,0.291,0C130.521,19.503,130.706,19.514,130.891,19.518z M129.635,18.761
	c-0.046-0.083-0.092-0.167-0.139-0.25c0.225,0.016,0.45,0.03,0.675,0.046c0.053,0.071,0.106,0.141,0.158,0.212
	C130.098,18.764,129.867,18.762,129.635,18.761z M128.32,18.765c-0.083-0.117-0.166-0.234-0.249-0.351
	c0.127,0.008,0.254,0.017,0.381,0.026c0.06,0.108,0.12,0.216,0.18,0.325C128.527,18.765,128.424,18.764,128.32,18.765z
	 M138.714,17.508c-0.037,0.33-0.084,0.659-0.124,0.988c-0.165-0.014-0.33-0.03-0.495-0.044c0.083-0.38,0.175-0.758,0.251-1.14
	C138.468,17.379,138.592,17.44,138.714,17.508z M130.417,17.419c0.257,0.009,0.515,0.014,0.772,0.022
	c0.081,0.14,0.162,0.28,0.242,0.421c-0.246-0.023-0.492-0.049-0.738-0.073L130.417,17.419z M129.509,17.671
	c-0.169-0.016-0.337-0.033-0.506-0.05c-0.049-0.088-0.097-0.176-0.146-0.264c0.143,0.006,0.286,0.012,0.43,0.017
	C129.361,17.473,129.435,17.572,129.509,17.671z M132.214,17.466c0.149,0.004,0.298,0.008,0.446,0.011
	c0.127,0.177,0.253,0.354,0.378,0.532c-0.18-0.017-0.361-0.031-0.541-0.048C132.404,17.796,132.309,17.631,132.214,17.466z
	 M134.721,17.521c0.165,0.003,0.331,0.003,0.496,0.005c0,0.224-0.003,0.449-0.004,0.673c-0.06-0.005-0.119-0.01-0.179-0.016
	C134.931,17.963,134.827,17.742,134.721,17.521z M127.829,17.317c0.037,0.066,0.073,0.133,0.11,0.199
	c-0.181-0.018-0.363-0.036-0.544-0.054c-0.039-0.056-0.079-0.111-0.118-0.167C127.461,17.303,127.645,17.309,127.829,17.317z
	 M130.382,16.078c0.052,0.087,0.105,0.173,0.157,0.259c-0.328-0.024-0.656-0.045-0.984-0.069c-0.062-0.082-0.123-0.165-0.185-0.247
	C129.708,16.04,130.045,16.059,130.382,16.078z M140.136,14.566c-0.004,0.062-0.008,0.123-0.012,0.185
	c-0.134-0.178-0.268-0.356-0.403-0.534c0.007-0.082,0.014-0.163,0.022-0.245C139.874,14.169,140.005,14.367,140.136,14.566z
	 M137.13,14.029c0.03,0.017,0.056,0.015,0.084,0.024c0.277,0.325,0.551,0.653,0.823,0.982c-0.014,0.046-0.025,0.092-0.038,0.138
	c-0.015-0.002-0.03-0.004-0.045-0.004c-0.436-0.376-0.875-0.747-1.324-1.108c0.077-0.05,0.131-0.136,0.147-0.233
	C136.894,13.895,137.013,13.962,137.13,14.029z M135.922,14.557c0.203,0.18,0.406,0.36,0.61,0.539
	c-0.497-0.144-1.003-0.273-1.508-0.406c-0.027-0.046-0.054-0.092-0.081-0.137c0.209,0.063,0.42,0.119,0.629,0.184
	C135.728,14.787,135.862,14.687,135.922,14.557z M129.758,15.05c0.013,0.021,0.025,0.042,0.038,0.063
	c-0.377-0.01-0.754-0.022-1.13-0.032c-0.05-0.066-0.1-0.133-0.149-0.199C128.931,14.935,129.345,14.991,129.758,15.05z
	 M134.312,13.565c-0.055-0.082-0.11-0.165-0.166-0.246c0.194,0.063,0.389,0.118,0.582,0.183c0.17,0.15,0.339,0.3,0.509,0.45
	C134.931,13.821,134.619,13.695,134.312,13.565z M131.771,13.857c-0.294-0.077-0.589-0.153-0.883-0.227
	c-0.039-0.049-0.076-0.099-0.115-0.148c0.298,0.064,0.597,0.125,0.894,0.195C131.702,13.737,131.736,13.797,131.771,13.857z
	 M140.386,10.417c-0.124,0.075-0.191,0.22-0.079,0.374c0.677,0.932,1.342,1.867,1.932,2.845c-0.877-1.199-1.753-2.398-2.636-3.592
	c-0.138-0.186-0.37-0.166-0.503-0.05c-0.734-0.904-1.496-1.787-2.28-2.654C138.123,8.24,139.312,9.275,140.386,10.417z
	 M131.225,12.95c-0.347-0.078-0.698-0.142-1.046-0.214c-0.065-0.081-0.131-0.161-0.196-0.242
	C130.398,12.641,130.812,12.793,131.225,12.95z M119.397,13.12c0.033,0.069,0.069,0.138,0.102,0.207
	c-0.628-0.032-1.253-0.028-1.875-0.008c-0.087-0.098-0.203-0.144-0.325-0.145c0.623-0.148,1.247-0.29,1.874-0.424
	c0.065,0.002,0.13,0.01,0.195,0.012C119.333,12.868,119.336,12.991,119.397,13.12z M120.279,12.821
	c0.791,0.059,1.58,0.143,2.368,0.257l0.344,0.672c-0.712-0.031-1.425-0.043-2.138-0.037
	C120.661,13.416,120.47,13.118,120.279,12.821z M112.36,12.844c-0.001-0.038-0.004-0.075-0.006-0.112
	c0.482-0.188,0.968-0.369,1.456-0.54C113.323,12.402,112.84,12.621,112.36,12.844z M119.378,10.805
	c-0.322,0.177-0.273,0.744,0.147,0.79c-0.862,0.167-1.723,0.336-2.586,0.5c-0.567,0.084-1.128,0.191-1.686,0.311
	C116.605,11.816,117.956,11.232,119.378,10.805z M129.285,11.329c0.014,0,0.027-0.001,0.041-0.001
	c0.287-0.007,0.4-0.271,0.344-0.484c0.066,0.002,0.132,0.002,0.198,0.004c0.047,0.02,0.095,0.04,0.143,0.06
	c0.142,0.229,0.282,0.459,0.422,0.689C130.051,11.502,129.668,11.415,129.285,11.329z M131.794,9.977
	c-0.038-0.119-0.14-0.211-0.313-0.201c-0.022,0.001-0.044,0.002-0.067,0.004c-0.254-0.133-0.508-0.267-0.763-0.397
	c-0.135-0.069-0.272-0.135-0.408-0.203c-0.218-0.279-0.436-0.558-0.656-0.836c0.054-0.004,0.102-0.019,0.14-0.049
	c0.613,0.343,1.217,0.702,1.812,1.076c1.344,0.844,2.637,1.76,3.906,2.711C134.256,11.332,133.036,10.637,131.794,9.977z
	 M121.36,7.179c-0.151,0.141-0.15,0.453,0.05,0.569c0.064,0.037,0.132,0.067,0.196,0.102c-0.535,0.055-1.069,0.117-1.603,0.192
	c-0.435,0.061-0.898,0.113-1.374,0.167c-0.077-0.059-0.174-0.091-0.282-0.063c-0.197,0.052-0.391,0.111-0.587,0.166
	c-1.213,0.153-2.464,0.365-3.56,0.809c0.318-0.203,0.635-0.408,0.956-0.608C117.243,8.477,119.341,7.645,121.36,7.179z
	 M116.551,7.661c0.022-0.013,0.044-0.026,0.066-0.04c0.622-0.196,1.281-0.324,1.951-0.408C117.895,7.393,117.22,7.553,116.551,7.661
	z M127.824,6.414c0.292,0.005,0.586,0.016,0.879,0.034c1.131,0.862,2.295,1.683,3.447,2.518c-0.227-0.145-0.449-0.299-0.679-0.441
	C130.409,7.873,129.148,7.063,127.824,6.414z M126.64,6.735c-0.461-0.09-0.928-0.159-1.398-0.21
	c0.251-0.025,0.501-0.044,0.753-0.061C126.213,6.548,126.428,6.639,126.64,6.735z M129.46,4.479
	c0.615,0.089,1.226,0.196,1.834,0.329c0.364,0.169,0.727,0.343,1.089,0.521c1.054,1.378,2.463,2.472,3.697,3.685
	c0.575,0.565,1.129,1.149,1.675,1.741c0.069,0.129,0.143,0.256,0.214,0.384C135.297,8.712,132.518,6.413,129.46,4.479z
	 M136.141,10.336c-0.477-0.385-0.956-0.769-1.445-1.142c-0.157-0.12-0.315-0.239-0.473-0.358c-0.58-0.473-1.165-0.941-1.754-1.404
	c-0.366-0.287-0.732-0.575-1.1-0.86c0.016-0.012,0.033-0.022,0.047-0.037c1.642,1.179,3.209,2.455,4.732,3.785
	C136.146,10.326,136.144,10.331,136.141,10.336z M129.748,6.157c0.08,0.063,0.16,0.127,0.237,0.191
	c0.936,0.775,1.906,1.51,2.876,2.242c0.151,0.114,0.302,0.228,0.452,0.342c0.307,0.247,0.608,0.502,0.913,0.752
	c-1.551-1.177-3.164-2.282-4.724-3.451c0.008-0.048,0.007-0.098-0.004-0.146C129.581,6.11,129.665,6.133,129.748,6.157z
	 M127.646,7.602c-0.208-0.005-0.417-0.007-0.625-0.007c-0.19-0.092-0.387-0.182-0.586-0.273
	C126.845,7.398,127.251,7.486,127.646,7.602z M124.523,7.088c0.27,0.169,0.558,0.324,0.862,0.477
	c0.048,0.024,0.097,0.047,0.145,0.071c-0.17,0.009-0.339,0.02-0.508,0.032c-0.166,0-0.333-0.003-0.499,0
	c-0.947-0.234-1.91-0.422-2.891-0.551c0.137-0.03,0.274-0.058,0.411-0.086C122.85,7.021,123.686,7.031,124.523,7.088z
	 M139.372,8.894c-0.811-0.746-1.671-1.443-2.59-2.071c0.091-0.088,0.128-0.226,0.053-0.362c-0.002-0.003-0.004-0.006-0.005-0.009
	C137.723,7.223,138.577,8.033,139.372,8.894z M135.667,6.711c1.448,1.587,2.854,3.215,4.132,4.937
	c-1.58-1.809-3.234-3.55-4.966-5.214C135.108,6.537,135.386,6.63,135.667,6.711z M118.796,2.725
	c0.173-0.111,0.184-0.294,0.107-0.427c0.111-0.036,0.226-0.064,0.339-0.097c0.296-0.07,0.589-0.135,0.874-0.189
	c0.03-0.006,0.048-0.023,0.063-0.043c0.668-0.137,1.356-0.223,2.082-0.234c0.354-0.005,0.717-0.002,1.083,0.007
	c-0.049,0.012-0.098,0.021-0.147,0.034c-0.073,0.02-0.124,0.064-0.162,0.118c-0.043,0.005-0.087,0.008-0.131,0.013
	c-0.009,0-0.018-0.001-0.027-0.002c-0.058-0.001-0.107,0.01-0.15,0.028c-0.291,0.039-0.581,0.08-0.87,0.131
	c-1.204,0.215-2.391,0.546-3.541,0.975C118.478,2.937,118.635,2.828,118.796,2.725z M126.485,3.496
	c-0.202-0.087-0.402-0.176-0.609-0.253c-0.186-0.069-0.34,0.062-0.389,0.224c-0.246-0.005-0.491,0-0.737-0.001
	c-1.249-0.249-2.507-0.424-3.763-0.441c0.759-0.174,1.529-0.303,2.305-0.392c1.605,0.196,3.188,0.515,4.735,0.97
	C127.515,3.555,127.001,3.519,126.485,3.496z M132.133,3.95c-0.09-0.079-0.199-0.089-0.291-0.056
	c-0.653-0.283-1.315-0.535-1.986-0.76c0.066-0.026,0.117-0.077,0.15-0.142c0.184,0.041,0.369,0.083,0.554,0.13
	c0.585,0.197,1.032,0.375,1,0.448c-0.03,0.067,0.021,0.17,0.106,0.139c0.082-0.029,0.164-0.059,0.245-0.089
	c0.036-0.013,0.065-0.037,0.089-0.064c1.519,0.538,2.939,1.336,3.884,2.583c-0.787-0.217-1.548-0.531-2.3-0.882
	c-0.006-0.006-0.012-0.011-0.018-0.017c0.151-0.149,0.181-0.431-0.049-0.552c-0.41-0.216-0.825-0.419-1.243-0.611
	C132.227,4.035,132.181,3.992,132.133,3.95z M116.006,4.974c0.479-0.274,0.974-0.528,1.482-0.762
	c2.285,0.538,4.89-0.058,7.215-0.058c0.048,0,0.095,0.002,0.142,0.002c0.024,0.005,0.048,0.009,0.072,0.013
	c0.432,0.088,0.882,0.174,1.337,0.266c0.165,0.148,0.333,0.293,0.501,0.438c-1.15-0.157-2.313-0.226-3.482-0.188
	c-0.157,0.005-0.313,0.017-0.47,0.026c-1.641-0.049-3.285,0.082-4.898,0.397c0.016-0.011,0.031-0.022,0.047-0.032
	c0.376-0.256,0.054-0.776-0.35-0.599c-1.002,0.439-1.959,0.957-2.889,1.522c-0.05,0.018-0.1,0.035-0.15,0.054
	C115.048,5.699,115.532,5.343,116.006,4.974z M118.251,6.108c1.24-0.368,2.504-0.622,3.795-0.738c0.399-0.006,0.797,0,1.196,0.016
	c-0.119,0.103-0.175,0.27-0.074,0.423c0.06,0.091,0.123,0.174,0.187,0.257c-0.341,0.054-0.682,0.111-1.023,0.175
	c-0.205,0.039-0.414,0.088-0.621,0.136c-1.047,0.008-2.224,0.029-3.381,0.175C118.425,6.405,118.376,6.218,118.251,6.108z
	 M115.363,6.858c0.505-0.029,0.99-0.15,1.487-0.307c-0.527,0.267-1.051,0.541-1.568,0.825c-0.189,0.092-0.369,0.196-0.545,0.307
	c-0.863,0.485-1.715,0.988-2.559,1.506C113.219,8.386,114.284,7.613,115.363,6.858z M123.085,8.538
	c0.067,0.026,0.136,0.048,0.203,0.073c-1.381,0.213-2.757,0.463-4.124,0.75c-0.45,0.056-0.899,0.12-1.345,0.198
	C119.566,9.156,121.319,8.785,123.085,8.538z M112.28,12.023c-0.004-0.022-0.005-0.044-0.009-0.066
	c-0.008-0.043-0.029-0.077-0.054-0.107c0.449-0.255,0.901-0.504,1.361-0.741c0.037,0.151,0.172,0.27,0.378,0.211
	c0.612-0.174,1.226-0.341,1.842-0.501C114.606,11.166,113.437,11.578,112.28,12.023z M106.227,12.835
	c0.305-0.609,0.604-1.237,0.953-1.832c0.009,0.013,0.015,0.028,0.026,0.039c-0.954,1.548-1.622,3.339-2.058,5.159
	c-0.436,0.976-0.741,2.034-0.93,3.033C104.387,16.979,105.179,14.929,106.227,12.835z M107.426,14.043
	c-0.622,0.882-1.073,1.878-1.415,2.899c-0.152,0.453-0.277,0.913-0.39,1.376c0.013-0.094,0.025-0.189,0.039-0.283
	c0.328-1.093,0.685-2.198,1.101-3.275C106.965,14.495,107.188,14.256,107.426,14.043z M106.301,18.601
	c0.206-0.92,0.479-1.825,0.856-2.689c0.054-0.123,0.119-0.272,0.192-0.435c-0.131,0.536-0.255,1.074-0.373,1.614
	c-0.423,1.188-0.789,2.437-1.004,3.703C106.034,20.062,106.138,19.33,106.301,18.601z M106.898,21.98
	c0.018-0.233,0.04-0.464,0.068-0.692c0.151-1.201,0.346-2.397,0.573-3.587c0.002-0.006,0.003-0.011,0.005-0.017
	c0.285-0.898,0.669-2.185,1.219-3.361c0.16-0.079,0.32-0.161,0.481-0.238c-0.044,0.142-0.093,0.285-0.13,0.409
	c-0.006,0.003-0.012,0.006-0.018,0.01c-0.214,0.121-0.208,0.341-0.098,0.49c-0.079,0.399-0.162,0.798-0.255,1.194
	c-0.233,0.994-0.501,1.979-0.773,2.963c-0.261,0.948-0.525,1.895-0.789,2.842C107.091,21.957,106.992,21.954,106.898,21.98z
	 M108.835,19.307c0.241-1.18,0.571-2.744,1.139-4.134c0.018,0.087,0.068,0.164,0.168,0.207c0.103,0.043,0.207,0.078,0.31,0.118
	c0.01,0.08,0.039,0.156,0.091,0.216c-0.182,1.346-0.409,2.688-0.595,4.021c-0.108,0.771-0.202,1.549-0.302,2.328
	c-0.265-0.029-0.558,0.175-0.442,0.485c0.089,0.239,0.188,0.472,0.284,0.708c-0.08,0.574-0.169,1.146-0.272,1.715
	c-0.305-0.453-0.605-0.909-0.903-1.366C108.305,22.089,108.588,20.514,108.835,19.307z M114.546,16.8
	c0.174,0.02,0.347,0.04,0.521,0.06c0.017,0.093,0.03,0.187,0.048,0.28c-0.189,0.011-0.377,0.032-0.566,0.047
	C114.548,17.058,114.546,16.929,114.546,16.8z M117.252,17.858c0.411-0.004,0.823,0.001,1.235,0.008
	c0.064,0.152,0.129,0.304,0.194,0.456c-0.403-0.055-0.806-0.106-1.209-0.159C117.4,18.061,117.325,17.96,117.252,17.858z
	 M117.478,19.758c-0.093,0.016-0.186,0.031-0.279,0.047c-0.162-0.02-0.325-0.037-0.487-0.059c-0.062-0.186-0.124-0.373-0.181-0.56
	c0.195,0.01,0.39,0.024,0.585,0.041C117.238,19.402,117.356,19.581,117.478,19.758z M118.296,19.357
	c0.305,0.039,0.596,0.077,0.871,0.11c0.003,0.008,0.007,0.015,0.01,0.023c-0.24,0.035-0.48,0.067-0.719,0.104
	C118.404,19.515,118.351,19.435,118.296,19.357z M115.754,19.617c-0.391-0.057-0.781-0.123-1.171-0.188
	c-0.001-0.037-0.001-0.074-0.002-0.112c0.33-0.074,0.676-0.123,1.039-0.138C115.663,19.325,115.707,19.471,115.754,19.617z
	 M111.139,20.683c-0.044-0.041-0.091-0.076-0.136-0.115c0.04-0.4,0.084-0.808,0.138-1.224
	C111.129,19.804,111.133,20.25,111.139,20.683z M110.813,22.503c0.094,0.21,0.187,0.421,0.287,0.628
	c-0.014,0.286-0.03,0.573-0.049,0.859c-0.105-0.166-0.212-0.332-0.316-0.498C110.758,23.158,110.784,22.827,110.813,22.503z
	 M107.221,24.884c0.08-0.196,0.143-0.405,0.194-0.621c0.053,0.112,0.102,0.227,0.156,0.338c0.03,0.356,0.082,0.704,0.158,1.043
	C107.56,25.389,107.391,25.136,107.221,24.884z M115.155,25.609c-0.006-0.005-0.012-0.009-0.018-0.014
	c-0.203-0.236-0.409-0.484-0.607-0.745c0-0.396,0-0.792,0.001-1.188c0.078-1.298,0.077-2.608,0.056-3.915
	c0.562-0.185,1.194-0.001,1.68,0.383c0.275,0.218,0.547,0.439,0.819,0.66c-0.022-0.058-0.046-0.115-0.068-0.173
	c0.038-0.005,0.076-0.01,0.113-0.015c0.333,0.04,0.667,0.082,1,0.118c0.201,0.299,0.406,0.596,0.605,0.896
	c-0.006,0.001-0.012,0.003-0.018,0.004c-0.203,0.005-0.406,0.008-0.609,0.011c0.311,0.259,0.622,0.518,0.932,0.778
	c0.069-0.002,0.138-0.005,0.207-0.007c0.032,0.049,0.064,0.099,0.097,0.148c-0.038,0.006-0.075,0.013-0.113,0.019
	c0.728,0.613,1.455,1.226,2.186,1.835c0.444,0.348,0.879,0.712,1.313,1.077c0.107,0.087,0.213,0.174,0.321,0.26V24.53
	c-0.156,0.041-0.312,0.083-0.468,0.125c-0.025-0.05-0.049-0.101-0.074-0.151c0.18-0.055,0.361-0.109,0.542-0.162V12.149
	c0-0.214,0.041-0.4,0.103-0.569c1.369-0.011,2.739-0.018,4.108-0.025c0,0.012,0.004,0.021,0.004,0.033v0.048
	c0.128,0.036,0.257,0.068,0.385,0.106c0.13,0.199,0.259,0.399,0.388,0.599c-0.257-0.043-0.516-0.079-0.773-0.119v13.687
	c0.186-0.036,0.373-0.072,0.559-0.109c1.871-1.578,3.806-3.147,5.992-4.238c0.46-0.229,0.93-0.252,1.347-0.104
	c-0.027,1.603-0.045,3.21-0.001,4.808c-0.185,0.175-0.388,0.346-0.599,0.515c-0.797,0.506-1.583,1.033-2.365,1.565
	c-0.605,0.347-1.227,0.68-1.835,0.994c-0.563,0.4-1.144,0.782-1.717,1.157c0.023,0.037,0.046,0.075,0.069,0.112
	c0.01,0.015,0.023,0.022,0.033,0.036c-0.21,0.136-0.419,0.273-0.631,0.408c-0.028-0.051-0.057-0.103-0.085-0.154
	c-0.275,0.181-0.544,0.361-0.808,0.542c0.026,0.044,0.052,0.089,0.078,0.133c-0.286,0.183-0.572,0.365-0.858,0.549
	c-0.016-0.03-0.032-0.059-0.048-0.089c-0.153,0.115-0.304,0.231-0.447,0.348c-0.532,0.434-1.327,0.689-1.959,0.253
	c-0.221-0.153-0.432-0.318-0.647-0.479c-0.074,0.014-0.151,0.016-0.227,0.02C120.478,29.965,117.974,27.573,115.155,25.609z
	 M119.312,20.841c0.163,0.015,0.326,0.024,0.489,0.038c0.075,0.165,0.151,0.33,0.227,0.495c-0.109,0.019-0.217,0.039-0.326,0.059
	C119.571,21.236,119.443,21.038,119.312,20.841z M109.074,33.515c-0.056-0.077-0.128-0.119-0.202-0.144
	c-1.416-2.079-2.418-4.403-2.971-6.855c0.356,0.771,0.76,1.52,1.195,2.255c0.394,0.731,0.83,1.449,1.336,2.151
	c0.058,0.081,0.12,0.159,0.179,0.24c0.435,0.657,0.875,1.311,1.303,1.968c0.468,0.717,0.943,1.465,1.452,2.183
	c0.008,0.092,0.043,0.181,0.122,0.246c0.046,0.038,0.093,0.075,0.139,0.113c0.144,0.195,0.291,0.387,0.442,0.575
	c-0.127-0.016-0.259-0.023-0.395-0.018c-0.094,0.003-0.181,0.042-0.255,0.1C110.559,35.424,109.77,34.475,109.074,33.515z
	 M116.623,38.367c-1.053-0.682-2.062-1.427-3.046-2.204c-0.058-0.073-0.112-0.149-0.17-0.222c1.079,0.839,2.202,1.683,3.37,2.447
	c0.003,0.005,0.007,0.009,0.01,0.013C116.73,38.393,116.678,38.377,116.623,38.367z M123.087,38.442
	c-0.36-0.385-0.73-0.753-1.082-1.109c0.034-0.015,0.065-0.034,0.095-0.058c0.562,0.585,1.132,1.163,1.71,1.733
	C123.565,38.824,123.326,38.632,123.087,38.442z M117.774,39.015c0.896,0.534,1.82,1.006,2.772,1.384
	c0.134,0.095,0.263,0.193,0.389,0.295c-1.102-0.319-2.223-0.983-3.202-1.607C117.749,39.063,117.765,39.041,117.774,39.015z
	 M115.646,39.842c0.283,0.15,0.563,0.305,0.852,0.445c1.351,0.651,2.87,1.37,4.401,1.597c0.046,0.041,0.092,0.081,0.139,0.12
	C119.128,41.669,117.314,40.897,115.646,39.842z"/>
<g>
</g>
<g>
</g>
<g>
</g>
<g>
</g>
<g>
</g>
<g>
</g>
</svg>
